<svg width="140" height="140" viewBox="0 0 140 140" fill="none" xmlns="http://www.w3.org/2000/svg">
<g clip-path="url(#clip0_916_227)">
<path d="M61.8356 6.82807C61.8356 3.80334 64.2882 1.35075 67.3129 1.35076H69.1497C72.1744 1.35076 74.6263 3.80272 74.6264 6.82738L74.627 56.135C74.6271 59.6222 77.4541 62.4492 80.9413 62.4492H129.636C132.661 62.4494 135.113 64.9012 135.113 67.9258V69.1508C135.113 72.1755 132.661 74.6273 129.636 74.6275H80.9413C77.4541 74.6275 74.6271 77.4545 74.627 80.9417L74.6264 129.637C74.6263 132.662 72.1744 135.114 69.1497 135.114H67.3129C64.2882 135.114 61.8356 132.661 61.8356 129.637V80.9417C61.8355 77.4545 59.0085 74.6275 55.5213 74.6275H6.82628C3.80155 74.6275 1.34965 72.1756 1.34965 69.1508V67.9258C1.34966 64.9011 3.80155 62.4492 6.82628 62.4492H55.5213C59.0086 62.4492 61.8355 59.6222 61.8356 56.135V6.82807Z" fill="#F2FF00" stroke="black" stroke-width="1.29684"/>
</g>
<defs>
<clipPath id="clip0_916_227">
<rect width="139.195" height="139.195" fill="white"/>
</clipPath>
</defs>
</svg>
