<svg width="53" height="53" viewBox="0 0 53 53" fill="none" xmlns="http://www.w3.org/2000/svg">
<path d="M32.8972 22.9215L32.8972 24.6043L41.2703 19.7701C46.2425 16.8994 52.4577 20.4878 52.4577 26.2292C52.4577 31.9705 46.2425 35.5589 41.2703 32.6882L32.8972 27.854L32.8972 29.4928L27.2063 26.2071L32.8972 22.9215Z" fill="#FF00C4"/>
<path d="M26.2288 0.000319288C20.4875 0.000319539 16.8991 6.21554 19.7698 11.1877L24.6025 19.5583L22.9428 19.5583L26.2285 25.2492L29.5141 19.5583L27.8552 19.5583L32.6879 11.1877C35.5586 6.21554 31.9702 0.000319037 26.2288 0.000319288Z" fill="#FF00C4"/>
<path d="M19.5572 24.6024L11.1874 19.7701C6.21522 16.8994 -1.39746e-06 20.4878 -1.1465e-06 26.2292C-8.95536e-07 31.9705 6.21522 35.5589 11.1874 32.6882L19.5572 27.8559L19.5572 29.5152L25.2481 26.2295L19.5572 22.9439L19.5572 24.6024Z" fill="#FF00C4"/>
<path d="M24.6022 32.9006L19.7698 41.2706C16.8991 46.2428 20.4875 52.458 26.2288 52.458C31.9702 52.458 35.5586 46.2428 32.6879 41.2706L27.8554 32.9006L29.5141 32.9006L26.2285 27.2097L22.9428 32.9006L24.6022 32.9006Z" fill="#FF00C4"/>
</svg>
