<svg width="179" height="179" viewBox="0 0 179 179" fill="none" xmlns="http://www.w3.org/2000/svg">
<path d="M50.4444 85.6429C42.102 76.8921 48.5805 62.4294 60.6641 62.8284L84.9118 63.629C86.1325 63.6693 87.353 63.5438 88.54 63.2559L112.117 57.5383C123.867 54.6889 133.153 67.5308 126.766 77.7961L113.948 98.3949C113.303 99.4319 112.802 100.552 112.457 101.723L105.62 125.001C102.213 136.601 86.4488 138.222 80.7525 127.558L69.322 106.158C68.7465 105.081 68.0276 104.087 67.1848 103.203L50.4444 85.6429Z" fill="#D9D9D9"/>
<path d="M37.5354 72.1489C33.8948 68.3275 36.7254 62.0086 42.0005 62.1809L85.8615 63.614C86.3944 63.6315 86.9272 63.5764 87.4455 63.4505L130.098 53.0855C135.228 51.8389 139.28 57.4473 136.49 61.9326L113.291 99.2264C113.01 99.6796 112.79 100.169 112.64 100.681L100.257 142.819C98.7677 147.887 91.8854 148.598 89.4004 143.94L68.7379 105.213C68.4869 104.743 68.1732 104.309 67.8054 103.923L37.5354 72.1489Z" fill="#01FD90"/>
<path d="M36.3627 73.6044C31.5167 68.5179 35.284 60.108 42.3056 60.3375L86.1606 61.7719C86.5168 61.7835 86.8731 61.7472 87.2195 61.6631L129.867 51.3004C136.697 49.6413 142.088 57.1079 138.375 63.0763L115.181 100.363C114.992 100.666 114.846 100.993 114.745 101.335L102.365 143.466C100.383 150.21 91.2227 151.157 87.9139 144.956L67.2531 106.236C67.0853 105.922 66.8752 105.632 66.6293 105.374L36.3627 73.6044ZM42.1762 64.2431C38.6489 64.1278 36.7561 68.3535 39.1904 70.9086L69.4574 102.677C69.9469 103.191 70.3643 103.769 70.6984 104.395L91.3593 143.115C93.0202 146.228 97.6219 145.756 98.6183 142.366L110.999 100.235C111.199 99.5536 111.491 98.9021 111.866 98.2992L135.06 61.0133C136.926 58.013 134.215 54.2642 130.787 55.0971L88.1398 65.4588C87.4501 65.6264 86.7408 65.6997 86.0316 65.6766L42.1762 64.2431Z" fill="#0079FF" stroke="#00F2FF" stroke-width="1.29846"/>
</svg>
