<svg width="61" height="21" viewBox="0 0 61 21" fill="none" xmlns="http://www.w3.org/2000/svg">
<g filter="url(#filter0_di_1064_5962)">
<g filter="url(#filter1_i_1064_5962)">
<path d="M35 13.6479V10.5416C35.0038 9.29685 36.3365 9.49428 36.7725 8.47139C37 7.93362 37.4586 7.56132 38.0714 7.55756L40.389 7.52747C41.1221 7.52183 41.5507 7.03483 41.577 6.33723L41.6183 5.27109C41.6446 4.57538 42.0732 4.04701 42.8006 4H46.4303C47.0562 4 47.6558 4.47196 47.654 5.18084L47.6464 15.5019C47.6464 16.1374 47.0731 16.647 46.4585 16.647L38.124 16.6526C36.6804 16.6526 37.0864 15.3627 35.7763 14.8269C35.3196 14.6407 34.9981 14.1612 35 13.6479ZM40.468 14.6087C41.1804 14.6087 41.577 14.086 41.5789 13.4147L41.5845 10.8331C41.5845 10.0979 41.1522 9.59394 40.4041 9.59582L39.9454 9.60146C39.4454 9.60146 39.0319 9.87974 38.9041 10.3329C38.7669 10.9214 38.7368 11.5062 38.8327 12.1023C38.7293 12.7059 38.7631 13.2925 38.8984 13.8811C39.0338 14.3417 39.4379 14.6087 39.9435 14.6087H40.468Z" fill="url(#paint0_linear_1064_5962)"/>
</g>
<g filter="url(#filter2_i_1064_5962)">
<path d="M11.4679 16.6699C10.686 16.6736 10.2311 16.0888 10.2255 15.348L10.1841 10.777C10.1785 10.0775 9.73112 9.64877 9.05256 9.62056C8.14092 9.58296 9.89277 9.5886 8.98113 9.61492C8.24242 9.63749 7.81949 10.1828 7.80634 10.9123C7.77814 12.441 7.82513 13.9566 7.76498 15.4871C7.73679 16.1829 7.21424 16.6717 6.55447 16.6699L5.23119 16.6661C4.4812 16.6623 4 16.1039 4 15.333L4.00376 5.20935C4.00376 4.51927 4.56014 4.05295 5.17479 4.01723C5.63531 3.9909 6.05072 3.99842 6.49996 4.01535C7.19168 4.03979 7.72363 4.46474 7.7631 5.19994C7.78942 5.68318 7.77438 6.17207 7.86648 6.66847C7.96611 7.19872 8.37964 7.53529 8.95857 7.53906L13.5713 7.5823C14.2029 7.58794 14.6634 7.9264 14.8871 8.48297C15.3006 9.50962 16.6483 9.32723 16.6483 10.5306V15.5248C16.6483 16.1885 16.0844 16.6623 15.4792 16.6661L11.4679 16.6717V16.6699Z" fill="url(#paint1_linear_1064_5962)"/>
</g>
<g filter="url(#filter3_i_1064_5962)">
<path d="M32.3616 8.98704L32.3766 13.9755C32.3804 15.224 31.042 15.0022 30.6097 16.0533C30.3936 16.5798 29.9481 16.9539 29.3315 16.9539H22.8467C21.4012 16.9539 21.8129 15.6716 20.499 15.13C20.0422 14.942 19.7227 14.4738 19.7227 13.9624V9.10174C19.7227 8.40602 20.2283 7.86637 20.8899 7.86637H22.2621C22.9294 7.86825 23.4482 8.34021 23.4782 9.04721C23.5459 10.574 23.5215 12.1253 23.5215 13.6239C23.5215 13.9642 23.6192 14.2952 23.8147 14.549C23.9895 14.7765 24.3542 14.9176 24.6963 14.9157L24.9218 14.91C25.6248 14.91 26.0139 14.4042 26.0196 13.7198L26.059 8.80841C26.059 7.55988 27.6511 7.87013 29.7921 7.87013H31.1511C31.7544 7.87013 32.3578 8.29132 32.3597 8.98892L32.3616 8.98704Z" fill="url(#paint2_linear_1064_5962)"/>
</g>
<g filter="url(#filter4_i_1064_5962)">
<path d="M55.2488 16.5117L52.0534 16.5318C51.2846 16.5367 50.8243 15.9755 50.8195 15.2102L50.797 12.2413C50.7917 11.4027 51.4806 10.9546 52.2646 10.9741L55.2722 10.9908C56.0299 11.0086 56.4419 11.6623 56.4388 12.3693L56.4258 15.3704C56.4224 16.0229 55.8935 16.5076 55.2488 16.5117Z" fill="url(#paint3_linear_1064_5962)"/>
</g>
<g filter="url(#filter5_i_1064_5962)">
<path d="M55.417 9.61818C50.9735 9.6462 50.9021 9.94187 50.8903 8.07851C50.8149 6.8436 54.4113 6.93374 55.4915 7.13189C55.9545 7.21735 56.258 7.64791 56.2363 8.08429C56.2146 8.52067 55.9301 9.61495 55.417 9.61818Z" fill="url(#paint4_linear_1064_5962)"/>
</g>
</g>
<defs>
<filter id="filter0_di_1064_5962" x="0" y="0" width="60.4375" height="20.9531" filterUnits="userSpaceOnUse" color-interpolation-filters="sRGB">
<feFlood flood-opacity="0" result="BackgroundImageFix"/>
<feColorMatrix in="SourceAlpha" type="matrix" values="0 0 0 0 0 0 0 0 0 0 0 0 0 0 0 0 0 0 127 0" result="hardAlpha"/>
<feOffset/>
<feGaussianBlur stdDeviation="2"/>
<feComposite in2="hardAlpha" operator="out"/>
<feColorMatrix type="matrix" values="0 0 0 0 1 0 0 0 0 1 0 0 0 0 1 0 0 0 0.25 0"/>
<feBlend mode="normal" in2="BackgroundImageFix" result="effect1_dropShadow_1064_5962"/>
<feBlend mode="normal" in="SourceGraphic" in2="effect1_dropShadow_1064_5962" result="shape"/>
<feColorMatrix in="SourceAlpha" type="matrix" values="0 0 0 0 0 0 0 0 0 0 0 0 0 0 0 0 0 0 127 0" result="hardAlpha"/>
<feOffset dy="0.874074"/>
<feGaussianBlur stdDeviation="0.437037"/>
<feComposite in2="hardAlpha" operator="arithmetic" k2="-1" k3="1"/>
<feColorMatrix type="matrix" values="0 0 0 0 0 0 0 0 0 0 0 0 0 0 0 0 0 0 0.13 0"/>
<feBlend mode="normal" in2="shape" result="effect2_innerShadow_1064_5962"/>
</filter>
<filter id="filter1_i_1064_5962" x="35" y="4" width="12.6523" height="12.6523" filterUnits="userSpaceOnUse" color-interpolation-filters="sRGB">
<feFlood flood-opacity="0" result="BackgroundImageFix"/>
<feBlend mode="normal" in="SourceGraphic" in2="BackgroundImageFix" result="shape"/>
<feColorMatrix in="SourceAlpha" type="matrix" values="0 0 0 0 0 0 0 0 0 0 0 0 0 0 0 0 0 0 127 0" result="hardAlpha"/>
<feOffset/>
<feGaussianBlur stdDeviation="2.57771"/>
<feComposite in2="hardAlpha" operator="arithmetic" k2="-1" k3="1"/>
<feColorMatrix type="matrix" values="0 0 0 0 1 0 0 0 0 1 0 0 0 0 1 0 0 0 0.41 0"/>
<feBlend mode="normal" in2="shape" result="effect1_innerShadow_1064_5962"/>
</filter>
<filter id="filter2_i_1064_5962" x="4" y="4" width="12.6484" height="12.6719" filterUnits="userSpaceOnUse" color-interpolation-filters="sRGB">
<feFlood flood-opacity="0" result="BackgroundImageFix"/>
<feBlend mode="normal" in="SourceGraphic" in2="BackgroundImageFix" result="shape"/>
<feColorMatrix in="SourceAlpha" type="matrix" values="0 0 0 0 0 0 0 0 0 0 0 0 0 0 0 0 0 0 127 0" result="hardAlpha"/>
<feOffset/>
<feGaussianBlur stdDeviation="2.57771"/>
<feComposite in2="hardAlpha" operator="arithmetic" k2="-1" k3="1"/>
<feColorMatrix type="matrix" values="0 0 0 0 1 0 0 0 0 1 0 0 0 0 1 0 0 0 0.41 0"/>
<feBlend mode="normal" in2="shape" result="effect1_innerShadow_1064_5962"/>
</filter>
<filter id="filter3_i_1064_5962" x="19.7227" y="7.83594" width="12.6523" height="9.11719" filterUnits="userSpaceOnUse" color-interpolation-filters="sRGB">
<feFlood flood-opacity="0" result="BackgroundImageFix"/>
<feBlend mode="normal" in="SourceGraphic" in2="BackgroundImageFix" result="shape"/>
<feColorMatrix in="SourceAlpha" type="matrix" values="0 0 0 0 0 0 0 0 0 0 0 0 0 0 0 0 0 0 127 0" result="hardAlpha"/>
<feOffset/>
<feGaussianBlur stdDeviation="2.57771"/>
<feComposite in2="hardAlpha" operator="arithmetic" k2="-1" k3="1"/>
<feColorMatrix type="matrix" values="0 0 0 0 1 0 0 0 0 1 0 0 0 0 1 0 0 0 0.41 0"/>
<feBlend mode="normal" in2="shape" result="effect1_innerShadow_1064_5962"/>
</filter>
<filter id="filter4_i_1064_5962" x="50.7969" y="10.9727" width="5.64062" height="5.55859" filterUnits="userSpaceOnUse" color-interpolation-filters="sRGB">
<feFlood flood-opacity="0" result="BackgroundImageFix"/>
<feBlend mode="normal" in="SourceGraphic" in2="BackgroundImageFix" result="shape"/>
<feColorMatrix in="SourceAlpha" type="matrix" values="0 0 0 0 0 0 0 0 0 0 0 0 0 0 0 0 0 0 127 0" result="hardAlpha"/>
<feOffset/>
<feGaussianBlur stdDeviation="2.57771"/>
<feComposite in2="hardAlpha" operator="arithmetic" k2="-1" k3="1"/>
<feColorMatrix type="matrix" values="0 0 0 0 1 0 0 0 0 1 0 0 0 0 1 0 0 0 0.41 0"/>
<feBlend mode="normal" in2="shape" result="effect1_innerShadow_1064_5962"/>
</filter>
<filter id="filter5_i_1064_5962" x="50.8906" y="7.01562" width="5.34766" height="2.63672" filterUnits="userSpaceOnUse" color-interpolation-filters="sRGB">
<feFlood flood-opacity="0" result="BackgroundImageFix"/>
<feBlend mode="normal" in="SourceGraphic" in2="BackgroundImageFix" result="shape"/>
<feColorMatrix in="SourceAlpha" type="matrix" values="0 0 0 0 0 0 0 0 0 0 0 0 0 0 0 0 0 0 127 0" result="hardAlpha"/>
<feOffset/>
<feGaussianBlur stdDeviation="2.57771"/>
<feComposite in2="hardAlpha" operator="arithmetic" k2="-1" k3="1"/>
<feColorMatrix type="matrix" values="0 0 0 0 1 0 0 0 0 1 0 0 0 0 1 0 0 0 0.41 0"/>
<feBlend mode="normal" in2="shape" result="effect1_innerShadow_1064_5962"/>
</filter>
<linearGradient id="paint0_linear_1064_5962" x1="41.327" y1="4" x2="41.327" y2="13.9762" gradientUnits="userSpaceOnUse">
<stop offset="0.024434" stop-color="#8F9AB0"/>
<stop offset="1" stop-color="#525C6F"/>
</linearGradient>
<linearGradient id="paint1_linear_1064_5962" x1="10.3242" y1="4" x2="10.3242" y2="13.9912" gradientUnits="userSpaceOnUse">
<stop offset="0.024434" stop-color="#8F9AB0"/>
<stop offset="1" stop-color="#525C6F"/>
</linearGradient>
<linearGradient id="paint2_linear_1064_5962" x1="26.0496" y1="7.83594" x2="26.0496" y2="15.0252" gradientUnits="userSpaceOnUse">
<stop offset="0.024434" stop-color="#8F9AB0"/>
<stop offset="1" stop-color="#525C6F"/>
</linearGradient>
<linearGradient id="paint3_linear_1064_5962" x1="53.6095" y1="10.9646" x2="53.6371" y2="15.3463" gradientUnits="userSpaceOnUse">
<stop offset="0.024434" stop-color="#8F9AB0"/>
<stop offset="1" stop-color="#525C6F"/>
</linearGradient>
<linearGradient id="paint4_linear_1064_5962" x1="53.5568" y1="7.01634" x2="53.5699" y2="9.09045" gradientUnits="userSpaceOnUse">
<stop offset="0.024434" stop-color="#8F9AB0"/>
<stop offset="1" stop-color="#525C6F"/>
</linearGradient>
</defs>
</svg>
