<?xml version="1.0" encoding="UTF-8"?>
<svg
  xmlns="http://www.w3.org/2000/svg"
  width="533.33331"
  height="266.66666"
  viewBox="0 0 533.33331 266.66666">
  <g id="landing-map-highlight-dots">
    <path
      id="dot-tokyo-path1554"
      d="m 3385.2,1117.15 c 4.19,0 7.61,-3.41 7.61,-7.61 0,-4.21 -3.42,-7.61 -7.61,-7.61 -4.18,0 -7.6,3.4 -7.6,7.61 0,4.2 3.42,7.61 7.6,7.61"
      style="fill:#0000ff;fill-opacity:1;fill-rule:nonzero;stroke:none"
      transform="matrix(0.13333333,0,0,-0.13333333,0,266.66667)" />
    <path
      id="dot-hong-kong-path3853"
      d="m 3117.87,971.109 c 4.2,0 7.58,-3.398 7.58,-7.609 0,-4.191 -3.38,-7.602 -7.58,-7.602 -4.2,0 -7.6,3.411 -7.6,7.602 0,4.211 3.4,7.609 7.6,7.609"
      style="fill:#00ff00;fill-opacity:1;fill-rule:nonzero;stroke:none"
      transform="matrix(0.13333333,0,0,-0.13333333,0,266.66667)" />
    <path
      id="dot-seoul-path4079"
      d="m 3239.39,1141.48 c 4.2,0 7.62,-3.41 7.62,-7.6 0,-4.21 -3.42,-7.62 -7.62,-7.62 -4.18,0 -7.57,3.41 -7.57,7.62 0,4.19 3.39,7.6 7.57,7.6"
      style="fill:#ff0000;fill-opacity:1;fill-rule:nonzero;stroke:none"
      transform="matrix(0.13333333,0,0,-0.13333333,0,266.66667)" />
  </g>
</svg>
