<svg width="708" height="1090" viewBox="0 0 708 1090" fill="none" xmlns="http://www.w3.org/2000/svg">
<g filter="url(#filter0_i_492_329)">
<path d="M271.432 0.347656C271.589 0.434054 271.809 0.590483 272.095 0.832031C272.471 1.1505 272.932 1.5902 273.467 2.1377C274.536 3.23231 275.887 4.74367 277.43 6.5459C280.515 10.15 284.356 14.9041 288.219 19.7861C295.948 29.5553 303.744 39.8074 305.766 42.3867L376.722 133.132L376.723 133.134C378.598 135.488 384.196 142.612 389.791 149.434C392.588 152.844 395.387 156.181 397.721 158.812C398.888 160.126 399.94 161.267 400.82 162.152C401.693 163.031 402.415 163.678 402.916 163.986L403.021 164.052L403.141 164.022C403.274 163.99 403.411 163.917 403.544 163.829C403.681 163.739 403.832 163.62 403.995 163.478C404.321 163.192 404.713 162.798 405.159 162.313C406.052 161.343 407.18 159.991 408.465 158.377C411.036 155.147 414.251 150.848 417.496 146.411C423.983 137.541 430.616 128.085 432.49 125.495L432.491 125.494C448.313 103.398 464.477 81.5995 480.986 60.1113L480.987 60.1123C483.193 57.2511 489.905 48.1587 496.703 39.8037C500.102 35.6264 503.517 31.6412 506.395 28.7178C507.834 27.2554 509.132 26.0654 510.223 25.251C510.768 24.8437 511.255 24.5357 511.675 24.334C512.034 24.1615 512.327 24.0758 512.558 24.0605C513.275 24.8912 514.141 26.4722 515.119 28.6729C516.132 30.9501 517.251 33.856 518.441 37.2002C520.822 43.8884 523.481 52.3121 526.127 60.9307C528.772 69.5458 531.407 78.3589 533.737 85.8125C536.066 93.2611 538.097 99.3774 539.539 102.595C550.567 127.206 559.326 158.398 566.837 184.877C570.134 196.821 573.219 208.836 576.09 220.913V220.914C577.854 228.574 578.869 235.189 581.074 242.81L581.17 243.14L581.482 242.996C598.968 234.942 625.135 220.328 646.922 207.732C657.817 201.434 667.62 195.639 674.699 191.418C678.239 189.308 681.097 187.591 683.071 186.401C684.058 185.807 684.824 185.343 685.343 185.029C685.418 184.984 685.487 184.941 685.552 184.902C685.486 185.218 685.398 185.642 685.288 186.17C685.026 187.433 684.642 189.29 684.154 191.664C683.178 196.411 681.786 203.226 680.123 211.496C676.797 228.036 672.385 250.397 668.044 273.679C663.703 296.96 659.433 321.165 656.39 341.395C654.868 351.509 653.652 360.632 652.888 368.149C652.124 375.661 651.809 381.589 652.095 385.303V385.304C652.326 388.287 654.305 390.89 657.185 393.126C660.069 395.366 663.903 397.274 667.943 398.859C676.026 402.031 684.999 403.941 689.033 404.64C689.85 404.781 691.266 404.968 692.962 405.2C694.662 405.433 696.653 405.711 698.631 406.037C700.61 406.363 702.571 406.736 704.214 407.155C705.773 407.554 707.006 407.985 707.701 408.438C707.683 409.857 707.029 411.978 705.963 414.493C704.865 417.083 703.351 420.046 701.724 423.005C698.468 428.923 694.77 434.801 693.053 437.631C684.808 451.202 674.859 464.145 664.451 475.833C661.798 478.815 659.012 481.625 656.234 484.46C653.459 487.293 650.693 490.151 648.095 493.222L647.95 493.393L648.076 493.579C649.251 495.309 651.31 497.734 653.725 500.466C656.151 503.211 658.923 506.251 661.572 509.263C664.215 512.268 666.708 515.213 668.543 517.729C669.46 518.986 670.209 520.13 670.729 521.115C671.235 522.075 671.502 522.852 671.526 523.422C670.588 525.553 668.352 528.333 665.07 531.606C661.766 534.903 657.43 538.673 652.371 542.748C642.253 550.897 629.256 560.252 615.86 569.45C589.069 587.847 560.696 605.61 550.592 611.851C541.588 617.412 513.466 631.052 501.96 636.7L501.51 636.921L501.921 637.208C504.696 639.148 508.911 642.262 513.128 645.271C517.334 648.274 521.541 651.172 524.27 652.656L524.46 652.76L524.616 652.609C528.653 648.728 533.605 644.062 538.965 640.463C544.33 636.86 550.061 634.356 555.66 634.741C561.951 635.177 566.427 638.638 569.111 643.555C571.801 648.481 572.688 654.869 571.763 661.111L571.762 661.114C570.407 670.895 565.364 676.613 559.354 683.484L559.282 683.566L559.281 683.677C559.246 688.032 558.97 692.17 560.012 696.439L560.03 696.514L560.082 696.569C580.953 719.302 600.211 742.483 600.411 776.687C600.553 800.558 586.456 821.371 564.658 826.329L564.443 826.378L564.429 826.597C564.12 830.973 564.061 835.343 564.027 839.693C563.994 844.046 563.986 848.377 563.782 852.69C562.947 870.209 562.13 888.65 560.337 906.06C558.946 919.12 557.176 932.122 555.021 945.06L555.021 945.062C554.714 946.964 553.84 951.991 553.071 956.788C552.685 959.197 552.323 961.567 552.064 963.492C551.808 965.404 551.649 966.912 551.684 967.576C551.965 973.043 553.336 991.203 554.942 1008.84C555.746 1017.65 556.608 1026.34 557.423 1033.25C557.83 1036.71 558.226 1039.72 558.597 1042.08C558.95 1044.33 559.286 1046.01 559.592 1046.92C557.819 1051.14 552.709 1053.71 547.576 1054.27C545.001 1054.55 542.454 1054.32 540.373 1053.56C538.31 1052.8 536.728 1051.53 535.993 1049.74C535.818 1038.56 533.141 1019.72 532.032 1008.23C531.576 1003.5 530.894 996.115 530.06 988.887C529.226 981.665 528.236 974.577 527.161 970.453C526.474 967.824 524.437 962.518 522.301 957.164C520.159 951.797 517.916 946.371 516.8 943.467H516.799C512.224 931.361 508.106 919.053 504.466 906.578L504.465 906.576L503.953 904.859C501.414 896.271 499.141 887.588 497.138 878.83V878.829C495.709 872.612 494.039 863.803 492.061 857.941L491.747 857.014L491.494 857.96C489.06 867.054 489.097 877.883 489.05 887.271C488.949 906.437 486.492 936.453 478.095 961.407C473.896 973.885 468.219 985.074 460.629 993.01C453.046 1000.94 443.555 1005.62 431.694 1005.1H431.692C422.157 1004.75 412.97 1001.06 405.498 994.559C391.144 981.881 386.933 963.405 385.178 946.69C384.739 942.514 384.455 938.452 384.202 934.621C383.95 930.792 383.73 927.189 383.421 923.942C383.112 920.696 382.712 917.791 382.1 915.357C381.488 912.927 380.657 910.939 379.466 909.546L379.43 909.504L379.382 909.478L379.08 909.319C377.583 908.558 376.224 908.228 374.987 908.271C373.665 908.316 372.506 908.788 371.494 909.575C369.485 911.138 368.052 913.946 366.985 917.163C364.853 923.598 364.112 931.948 363.368 935.992C360.204 953.143 355.95 969.611 346.845 984.062L346.408 984.749C338.99 996.279 328.663 1001.03 317.934 1000.96C307.189 1000.89 296.014 995.99 286.941 988.177L286.939 988.176C261.404 966.436 255.383 929.828 255.936 896.229C256.043 889.703 256.612 883.312 257.227 876.923C257.841 870.537 258.501 864.148 258.785 857.642C258.878 855.483 258.509 851.353 258.051 847.197C257.592 843.035 257.04 838.808 256.763 836.456L256.704 835.958L256.297 836.25C245.762 843.79 237.897 851.398 224.797 851.295C211.861 851.192 202.493 844.547 196.36 834.816C190.222 825.076 187.331 812.249 187.386 799.839C187.609 749.557 219.712 709.547 249.755 675.108C253.028 671.356 256.441 667.869 259.853 664.398C263.262 660.93 266.672 657.477 269.927 653.804L270.269 653.419L269.764 653.317C257.404 650.839 235.129 649.489 222.143 648.222H222.144C199.365 645.857 176.603 643.292 153.86 640.539H153.859C149.186 639.99 142.043 639.281 135.02 638.408C128.172 637.558 121.481 636.554 117.363 635.407C120.547 627.301 125.219 618.166 129.755 609.148C134.344 600.027 138.794 591.024 141.39 583.37L141.469 583.137L141.253 583.017C135.47 579.806 128.843 574.48 121.522 567.976C114.203 561.472 106.215 553.81 97.7012 545.929C80.7754 530.26 61.7918 513.739 42.0342 503.912C42.14 503.812 42.2953 503.698 42.5146 503.571C42.908 503.345 43.4547 503.108 44.1426 502.864C45.5167 502.376 47.4129 501.87 49.6787 501.344C54.2095 500.291 60.1753 499.168 66.3086 497.955C72.4364 496.743 78.7295 495.443 83.8984 494.038C86.4825 493.336 88.7926 492.606 90.6641 491.846C92.5271 491.089 93.9888 490.288 94.8457 489.433L95.0488 489.23L94.8525 489.021C88.1653 481.89 81.2657 471.272 74.083 458.91C66.9009 446.549 59.4526 432.475 51.6543 418.429C43.8593 404.389 35.719 390.385 27.167 378.192C18.7907 366.25 10.0063 356.029 0.749023 349.209C0.934758 349.211 1.15723 349.225 1.41602 349.249C2.16843 349.32 3.19702 349.483 4.46973 349.727C7.01396 350.213 10.5062 351.018 14.6562 352.036C22.9558 354.072 33.8665 356.96 45.0518 359.864C56.2344 362.768 67.6908 365.687 77.0732 367.786C81.7642 368.836 85.9415 369.681 89.3086 370.217C92.6629 370.75 95.2504 370.984 96.7412 370.788L97.0566 370.746L96.9922 370.435C95.1839 361.587 90.9451 347.904 88.584 338.742V338.741C83.3533 318.557 78.7543 298.183 74.7959 277.655C74.5622 276.438 74.1596 273.964 73.877 271.562C73.7356 270.362 73.6248 269.184 73.5801 268.193C73.5347 267.189 73.5594 266.416 73.6699 266C75.1076 260.596 74.7558 255.286 73.8857 250.065C73.4509 247.456 72.8853 244.862 72.3467 242.29C71.8073 239.715 71.2946 237.16 70.9619 234.616C70.0582 227.706 65.403 200.139 61.4658 173.244C59.4962 159.79 57.7059 146.498 56.6504 136.024C56.1226 130.787 55.7788 126.26 55.6885 122.771C55.6433 121.027 55.6618 119.548 55.751 118.372C55.8323 117.299 55.9716 116.505 56.1611 115.995C56.3525 115.987 56.6289 116.021 57.0029 116.115C57.4753 116.235 58.0668 116.441 58.7734 116.732C60.1861 117.316 62.0319 118.229 64.2559 119.433C68.7022 121.838 74.6372 125.391 81.6025 129.748C95.5324 138.463 113.567 150.386 132.027 162.768C168.937 187.524 207.562 214.123 218.415 220.521L218.721 220.7L218.844 220.368C220.85 214.958 222.213 207.91 223.464 202.207L251.551 78.0605C252.695 73.06 256.761 54.216 261.024 36.2891C263.156 27.3264 265.334 18.5986 267.221 11.9521C268.164 8.62821 269.034 5.83019 269.785 3.78516C270.161 2.76224 270.504 1.93396 270.812 1.3252C270.965 1.02074 271.107 0.776048 271.235 0.591797C271.309 0.486175 271.375 0.406511 271.432 0.347656Z" fill="black" stroke="#FD01BA" stroke-width="0.592219"/>
<path d="M534.801 639.193C541.97 636.079 548.845 634.278 555.659 634.747C561.95 635.183 566.426 638.644 569.11 643.561C571.799 648.487 572.686 654.875 571.76 661.117V661.12C570.406 670.901 565.362 676.619 559.353 683.49L559.281 683.572L559.28 683.683C559.245 688.038 558.969 692.176 560.01 696.445L560.029 696.52L560.08 696.575C580.951 719.308 600.208 742.489 600.409 776.692C600.55 800.564 586.455 821.377 564.657 826.335L564.442 826.384L564.427 826.603C564.118 830.979 564.058 835.349 564.025 839.699C563.992 844.052 563.985 848.383 563.781 852.696C562.946 870.215 562.129 888.656 560.336 906.065C558.945 919.126 557.174 932.128 555.019 945.065V945.066C554.712 946.969 553.839 951.996 553.07 956.794C552.684 959.203 552.321 961.572 552.062 963.498C551.806 965.41 551.648 966.918 551.682 967.582C551.964 973.049 553.335 991.209 554.941 1008.84C555.744 1017.66 556.607 1026.35 557.422 1033.26C557.829 1036.71 558.225 1039.72 558.595 1042.08C558.949 1044.33 559.284 1046.01 559.591 1046.92C557.818 1051.14 552.707 1053.71 547.575 1054.28C545 1054.56 542.453 1054.33 540.372 1053.57C538.309 1052.81 536.727 1051.54 535.992 1049.74C535.817 1038.56 533.139 1019.73 532.03 1008.23C531.574 1003.51 530.893 996.121 530.058 988.893C529.224 981.671 528.235 974.583 527.16 970.459C526.473 967.83 524.434 962.524 522.299 957.17C520.157 951.803 517.913 946.378 516.798 943.474H516.799C512.223 931.367 508.104 919.06 504.464 906.584V906.581L503.952 904.865C501.413 896.277 499.139 887.593 497.136 878.836V878.835C495.797 873.006 494.245 864.9 492.427 859.08L492.059 857.947L492.054 857.936C491.035 855.293 489.863 849.891 488.766 844.31C487.674 838.747 486.659 833.016 485.957 829.768H485.956C478.058 793.352 473.134 756.785 467.287 720.02L467.256 719.824L467.064 719.778L464.963 719.254C460.287 718.048 457.079 716.835 452.506 713.124C446.788 708.487 443.673 699.918 444.095 692.105C444.511 684.424 448.331 677.574 456.342 675.89L456.726 675.813C478.417 671.719 496.333 660.949 512.231 651.469C520.187 646.725 527.629 642.308 534.801 639.193Z" fill="#939393" stroke="#FD01BA" stroke-width="0.592219"/>
<path d="M560.623 697.164C581.285 719.709 600.214 742.784 600.413 776.692C600.554 800.428 586.617 821.136 565.031 826.245C565.196 820.314 564.886 814.07 564.886 808.147C564.892 771.112 561.78 734.083 560.623 697.164Z" fill="black" stroke="#FD01BA" stroke-width="0.592219"/>
<path d="M542.115 695.338C542.272 707.708 543.58 723.905 544.282 737.011L544.416 739.623C545.492 762.374 546.195 785.152 546.533 807.936L545.828 808.506L545.719 808.595V808.737C545.725 812.313 545.604 815.349 546.13 818.853L546.244 819.56C546.727 822.893 546.549 828.179 546.32 831.683L546.133 832.164C531.235 835.472 520.488 835.841 505.257 834.896C505.226 834.791 505.187 834.65 505.144 834.476C505.07 834.18 504.984 833.802 504.889 833.368C504.7 832.5 504.478 831.411 504.259 830.303C503.82 828.081 503.395 825.809 503.251 825.075L503.232 824.976L503.155 824.908L502.554 824.391C501.909 821.272 501.592 820.436 501.834 817.343L501.838 817.3L501.828 817.258C495.163 786.266 489.698 750.397 484.74 719.043C507.354 712.997 521.453 706.854 542.115 695.338Z" fill="black" stroke="#FD01BA" stroke-width="0.592219"/>
<path d="M522.901 804.788C529.655 803.886 536.478 803.688 541.152 804.424H541.153C542.319 804.607 543.23 805.271 543.974 806.123C544.703 806.957 545.254 807.95 545.722 808.807C545.726 812.585 545.596 815.767 546.247 819.546V819.547C546.731 822.88 546.553 828.171 546.324 831.677L546.137 832.159C531.239 835.467 520.492 835.835 505.261 834.89C505.23 834.785 505.191 834.644 505.148 834.47C505.074 834.174 504.988 833.796 504.893 833.362C504.704 832.494 504.482 831.405 504.263 830.297C503.824 828.076 503.399 825.805 503.255 825.07L503.236 824.97L503.158 824.902L502.558 824.384C501.914 821.272 501.597 820.433 501.836 817.356C502.054 816.218 502.361 814.456 502.891 812.842C503.157 812.032 503.476 811.272 503.86 810.653C504.197 810.11 504.574 809.693 504.994 809.439L505.176 809.342C509.501 807.291 516.146 805.69 522.901 804.788Z" fill="#939393" stroke="#FD01BA" stroke-width="0.592219"/>
<path d="M546.352 820.421C546.699 823.75 546.534 828.463 546.324 831.677L546.136 832.162C531.238 835.47 520.492 835.838 505.261 834.893C505.23 834.788 505.191 834.648 505.147 834.474C505.074 834.178 504.988 833.8 504.893 833.366C504.704 832.498 504.482 831.408 504.263 830.3C503.95 828.714 503.642 827.102 503.44 826.043C504.675 827.289 505.994 828.5 507.245 829.679L507.325 829.755L507.435 829.76C516.23 830.143 527.922 828.928 536.625 827.006C539.199 826.436 541.092 825.785 542.67 824.671C544.07 823.682 545.202 822.342 546.352 820.421Z" fill="black" stroke="#FD01BA" stroke-width="0.592219"/>
<path d="M546.101 832.774C546.455 835.711 546.481 840.951 546.375 846.245C546.266 851.727 546.019 857.239 545.865 860.25C544.725 882.342 543.879 908.174 540.216 929.942C536.936 930.665 534.182 931.275 530.877 931.722C522.083 908.906 509.418 860.671 505.395 835.493C520.52 836.424 531.275 836.052 546.101 832.774Z" fill="#FEFEFE" stroke="#FD01BA" stroke-width="0.592219"/>
<path d="M546.636 808.617C546.777 809.507 546.903 810.981 546.997 812.787C547.11 814.958 547.179 817.583 547.185 820.185C547.189 821.537 547.173 822.883 547.14 824.154C547.121 822.717 547.056 821.329 546.92 820.128L546.835 819.466L546.834 819.458L546.721 818.763C546.211 815.363 546.318 812.416 546.315 808.876L546.636 808.617Z" fill="#707070" stroke="#FD01BA" stroke-width="0.592219"/>
<path d="M230.978 379.55C231.253 379.494 231.622 379.507 232.079 379.592C232.545 379.679 233.084 379.838 233.675 380.054C234.858 380.485 236.226 381.135 237.611 381.856C238.995 382.577 240.388 383.365 241.623 384.073C242.853 384.779 243.933 385.409 244.675 385.804C294.222 412.135 344.806 437.809 396.289 459.37L396.674 459.531L396.698 459.114C397.201 450.476 398.14 443.908 400.989 438.883C403.826 433.879 408.584 430.364 416.831 427.897C425.921 425.177 434.935 423.55 444.244 421.789C459.768 418.844 475.335 416.156 490.931 413.726V413.725C506.186 411.298 522.186 407.609 537.543 407.414C543.698 407.336 549.569 409.048 553.973 413.95C557.402 417.769 560.139 425.083 562.305 434.312C564.467 443.524 566.049 454.587 567.199 465.852C569.498 488.379 570.067 511.683 570.112 522.529L570.113 522.757L570.333 522.814C597.869 530.086 622.404 534.557 650.167 538.711C644.859 543.726 639.207 548.189 633.564 552.783C632.905 552.877 631.614 552.822 629.796 552.631C627.925 552.434 625.534 552.099 622.786 551.663C617.289 550.792 610.373 549.522 603.341 548.161C589.278 545.439 574.757 542.356 570.209 541.381L569.881 541.311L569.853 541.646C569.297 548.133 568.427 553.665 566.164 558.181C563.909 562.68 560.259 566.192 554.091 568.616C544.426 572.407 534.64 574.314 524.532 576.349C507.03 579.742 489.469 582.761 471.861 585.403C467.18 586.103 458.505 587.454 449.935 588.427C445.65 588.913 441.395 589.304 437.681 589.472C433.961 589.64 430.806 589.583 428.71 589.182H428.708C425.049 588.505 421.597 586.831 418.68 584.306L418.206 583.884C415.863 581.738 413.986 579.041 412.713 575.994L412.712 575.992L412.378 575.174C410.71 570.924 409.097 564.365 407.584 556.561C405.973 548.244 404.481 538.535 403.161 528.747C400.521 509.172 398.572 489.291 397.734 479.612L397.718 479.435L397.554 479.365L393.735 477.753C354.289 461.047 315.395 442.814 277.131 423.086L277.13 423.085L269.582 419.257C251.265 409.967 227.489 397.813 211.936 387.876C218.138 385.348 224.836 382.246 230.978 379.55Z" fill="#FEFEFE" stroke="#FD01BA" stroke-width="0.592219"/>
<path d="M533.316 427.132C535.939 426.918 538.196 426.845 539.993 427.57C541.756 428.282 543.124 429.785 543.906 432.865H543.907C546.287 442.213 549.665 467.769 551.605 492.754C552.574 505.242 553.184 517.577 553.129 527.662C553.102 532.705 552.908 537.181 552.512 540.829C552.119 544.451 551.527 547.225 550.719 548.932C549.526 550.043 547.138 551.221 543.776 552.425C540.391 553.637 536.065 554.861 531.086 556.07C521.129 558.488 508.582 560.839 495.775 562.906C470.166 567.04 443.557 570.03 434.576 570.152C433.866 570.098 433.06 570.018 432.288 569.838C431.509 569.656 430.788 569.377 430.241 568.937L430.24 568.936C429.592 568.416 428.936 567.404 428.29 565.963C427.649 564.531 427.033 562.713 426.447 560.622C425.273 556.44 424.222 551.193 423.315 545.818C421.499 535.07 420.259 523.847 419.731 519.667V519.666C419.023 514.077 416.947 498.285 415.746 482.878C415.146 475.174 414.765 467.572 414.882 461.396C414.941 458.307 415.124 455.581 415.465 453.38C415.802 451.204 416.288 449.58 416.931 448.62C418.23 447.775 420.734 446.82 424.197 445.796C427.69 444.763 432.125 443.669 437.204 442.548C447.362 440.306 460.083 437.961 472.98 435.793C498.777 431.456 525.257 427.828 533.317 427.133L533.316 427.132Z" fill="#FEFEFE" stroke="#FD01BA" stroke-width="0.592219"/>
<path d="M525.347 441.233C526.425 441.3 526.955 441.387 527.36 441.615C527.767 441.845 528.12 442.259 528.712 443.243C528.684 443.799 528.656 444.357 528.631 444.915C517.543 460.566 499.588 482.528 488.34 496.857L487.931 497.379L488.447 497.795C495.989 503.883 503.817 509.673 511.599 515.495C518.899 520.956 526.161 526.447 533.136 532.253L534.528 533.419C535.645 534.36 536.172 535.386 536.184 536.305C536.195 537.157 535.761 538.074 534.616 538.896C534.304 538.877 533.889 538.779 533.369 538.579C532.753 538.343 532.041 537.987 531.256 537.534C529.688 536.629 527.884 535.371 526.068 534.01C524.255 532.651 522.444 531.2 520.863 529.916C519.289 528.639 517.926 527.514 517.035 526.829H517.034C506.4 518.574 495.679 510.457 484.874 502.479L484.365 502.104L483.958 502.589C476.801 511.149 469.88 520.123 462.983 529.05C456.159 537.882 449.358 546.667 442.36 554.983C441.409 554.854 440.878 554.666 440.479 554.367C440.046 554.043 439.692 553.533 439.197 552.577C439.242 552.226 439.401 551.722 439.701 551.064C440.041 550.319 440.531 549.439 441.137 548.461C442.349 546.506 443.996 544.21 445.75 541.894C449.264 537.253 453.145 532.619 454.792 530.536C463.009 520.146 471.132 509.325 479.553 499.213L479.987 498.692L479.463 498.264C472.461 492.524 465.157 487.066 457.845 481.642C450.529 476.215 443.207 470.823 436.147 465.2V465.199C433.78 463.316 431.895 462.29 431.216 459.599C431.367 459.053 431.457 458.684 431.521 458.435C431.596 458.143 431.626 458.069 431.654 458.021C431.683 457.97 431.731 457.91 431.946 457.699C432.119 457.529 432.366 457.288 432.717 456.923C433.008 456.928 433.388 456.999 433.862 457.159C434.454 457.359 435.139 457.677 435.896 458.092C437.41 458.922 439.151 460.107 440.905 461.403C442.656 462.697 444.405 464.09 445.938 465.327C447.082 466.25 448.115 467.094 448.931 467.741L449.671 468.318L483 493.747L483.527 494.148L483.936 493.628C497.169 476.791 511.722 457.372 525.347 441.233Z" fill="#FC41FF" stroke="#FD01BA" stroke-width="1.34345"/>
<path d="M541.197 114.776C541.631 115.166 542.095 115.786 542.574 116.605C543.071 117.455 543.574 118.5 544.075 119.686C545.078 122.057 546.064 124.973 546.956 127.966C548.71 133.845 550.097 139.997 550.559 142.876C545.329 147.707 533.406 155.284 527.28 159.182C511.389 169.229 495.272 178.832 478.932 187.979C427.292 216.909 374.722 243.806 321.323 268.618C273.718 290.278 225.813 311.137 177.623 331.188L177.622 331.189C163.642 337.082 149.629 342.884 135.585 348.596L129.565 351.038C121.528 354.248 107.847 359.826 99.5891 361.625C98.6714 359.894 97.5952 356.899 96.468 353.211C95.3 349.389 94.0834 344.847 92.9368 340.248C90.6783 331.189 88.6932 321.922 87.8821 317.521C102.331 308.774 117.867 300.777 133.496 292.88C149.185 284.953 164.969 277.124 179.823 268.741C197.031 259.029 217.36 253.471 235.819 246.404H235.821C258.621 237.488 281.249 228.053 303.689 218.104L308.174 216.107C385.6 181.685 460.445 141.575 540.455 114.625L541.197 114.776Z" fill="#FEFEFE" stroke="#FD01BA" stroke-width="0.592219"/>
<path d="M566.626 202.763C566.785 202.752 566.992 202.792 567.245 202.871C567.372 202.911 567.503 202.958 567.637 203.006C567.738 203.042 567.843 203.079 567.945 203.113C568.723 204.144 569.448 205.696 570.115 207.558C570.794 209.454 571.406 211.648 571.95 213.888C573.008 218.25 573.805 222.761 574.35 225.567C564.522 230.231 552.874 234.56 542.704 238.559C523.293 246.148 503.822 253.559 484.299 260.788L484.298 260.789C441.03 276.924 397.398 293.831 353.122 306.091C284.86 324.99 215.115 340.726 145.623 352.979L145.619 352.979C142.747 353.523 138.91 353.908 135.655 354.271C146.013 349.13 164.856 342.04 176.501 337.238L178.834 336.266L276.714 294.66L276.716 294.659C293.933 287.164 311.051 279.394 328.062 271.355C339.972 265.761 353.762 258.366 366.067 254.872C399.18 245.469 432.879 237.6 466.529 229.5C500.163 221.404 533.745 213.077 566.626 202.763Z" fill="#FEFEFE" stroke="#FD01BA" stroke-width="0.592219"/>
<path d="M356.253 311.001C355.602 311.426 354.798 311.925 353.878 312.476C351.638 313.816 348.741 315.453 345.783 317.089C339.868 320.36 333.727 323.614 332.14 324.456C274.997 354.765 216.372 382.864 155.658 403.334C141.636 408.061 126.213 413.089 111.9 416.55C111.051 414.706 110.229 412.496 109.467 410.578C105.388 397.465 101.848 381.104 101.286 367.24C115.788 361.792 126.777 361.371 142.028 358.97L142.027 358.969C157.42 356.579 172.768 353.856 188.062 350.797L188.061 350.796C244.529 339.659 300.627 326.386 356.253 311.001Z" fill="#FEFEFE" stroke="#FD01BA" stroke-width="1.34345"/>
<path d="M426.081 696.313C426.58 696.709 427.172 697.343 427.836 698.182C428.572 699.112 429.385 700.276 430.245 701.607C431.966 704.27 433.869 707.586 435.724 710.999C439.353 717.678 442.787 724.716 444.293 727.925C441.368 730.4 435.557 734.16 429.608 737.794C423.549 741.496 417.373 745.055 414.025 746.976C369.007 772.772 325.327 791.89 276.075 805.331C270.806 806.598 265.773 807.536 260.467 808.523C260.08 799.792 261.329 790.345 262.977 781.806C276.099 776.477 288.271 772.318 301.69 766.631L304.401 765.468C347.05 747.103 387.829 723.924 426.081 696.313Z" fill="#FEFEFE" stroke="#FD01BA" stroke-width="0.592219"/>
<path d="M446.614 733.113C446.745 733.17 446.917 733.275 447.132 733.439C447.409 733.652 447.735 733.946 448.104 734.314C448.843 735.051 449.737 736.068 450.739 737.285C452.744 739.718 455.165 742.927 457.615 746.234C460.063 749.538 462.541 752.942 464.65 755.753C466.623 758.381 468.292 760.517 469.322 761.572L469.521 761.769C469.664 761.907 469.918 762.256 470.203 762.746C470.483 763.227 470.778 763.819 471.009 764.422C471.241 765.028 471.401 765.628 471.425 766.132C471.446 766.578 471.359 766.899 471.176 767.102L471.092 767.181C468.262 769.463 464.924 771.085 461.472 772.551C458.033 774.01 454.459 775.322 451.224 776.973C398.304 799.053 340.187 820.775 283.804 827.571L283.785 827.573L283.767 827.578C281.427 828.17 277.081 828.599 272.678 828.871C268.419 829.134 264.136 829.247 261.626 829.222C260.504 824.029 260.412 819.333 260.51 814.021C326.771 799.861 388.746 770.845 446.614 733.113Z" fill="#FEFEFE" stroke="#FD01BA" stroke-width="0.592219"/>
<path d="M184.58 482.935C187.944 483.487 193.913 484.989 199.99 486.586C206.046 488.178 212.204 489.859 215.945 490.769C207.913 513.836 216.379 536.232 231.497 549.971C246.679 563.768 268.62 568.87 287.331 557.096C298.233 550.238 302.674 536.5 304.976 524.035C311.046 532.16 314.057 539.242 315.981 549.528C316.516 554.81 316.543 560.008 315.318 565.165L315.317 565.167C313.451 573.237 308.611 580.093 301.96 584.11L301.958 584.111C294.62 588.6 284.48 590.178 274.169 590.079C263.865 589.981 253.431 588.208 245.539 586.034C205.314 574.951 173.071 529.232 184.58 482.935Z" fill="#FEFEFE" stroke="#FD01BA" stroke-width="0.592219"/>
<path d="M552.223 150.921C552.402 151.093 552.621 151.376 552.873 151.777C553.15 152.219 553.456 152.784 553.788 153.458C554.45 154.806 555.204 156.574 556.005 158.629C557.605 162.738 559.388 167.978 561.003 173.264C562.618 178.55 564.063 183.877 564.99 188.159C565.454 190.301 565.787 192.177 565.947 193.652C566.027 194.39 566.064 195.023 566.053 195.535C566.044 195.993 565.993 196.334 565.918 196.566C564.381 197.484 561.222 198.692 557.173 200.023C553.055 201.378 548.051 202.852 542.98 204.276C532.838 207.125 522.44 209.77 518.339 210.846C478.372 221.284 438.317 231.307 398.173 240.914L398.16 240.918C394.038 242.086 389.65 242.967 385.39 243.849C390.841 240.612 398.436 236.99 403.848 234.212H403.849L439.263 215.947L439.265 215.946C476.326 196.509 516.363 174.223 551.283 150.79L552.223 150.921Z" fill="#FEFEFE" stroke="#FD01BA" stroke-width="0.592219"/>
<path d="M380.874 146.238C381.007 146.267 381.175 146.331 381.378 146.44C381.627 146.575 381.914 146.768 382.234 147.017C382.874 147.514 383.631 148.216 384.466 149.071C386.136 150.78 388.102 153.073 390.072 155.487C393.847 160.113 397.607 165.142 399.318 167.331C380.284 177.805 357.492 187.452 337.835 196.728C295.911 216.51 252.887 235.372 209.387 250.561C204.242 252.327 199.399 253.668 194.247 255.068C200.526 250.921 209.073 246.302 216.053 242.438L219.161 240.705L262.995 215.993C302.706 193.597 342.005 170.341 380.874 146.238Z" fill="#FEFEFE" stroke="#FD01BA" stroke-width="0.592219"/>
<path d="M383.928 808.537C388.747 808.537 395.736 809.186 402.907 809.907C410.089 810.63 417.452 811.425 422.96 811.711C443.388 812.783 459.35 812.772 479.814 811.722C481.48 817.63 483.475 830.239 484.577 836.604C467.307 839.17 439.346 838.469 421.667 838.159C387.891 835.045 352.075 834.707 318.516 826.869C342.127 820.974 360.781 815.17 383.928 808.537Z" fill="#FEFEFE" stroke="#FD01BA" stroke-width="0.592219"/>
<path d="M481.931 919.782C481.053 928.678 479.6 936.113 477.311 944.677C447.557 947.578 428.168 953.613 401.433 968.472L395.604 971.662C392.016 962.988 391.034 956.575 389.839 947.158C411.67 930.94 443.963 922.5 470.057 920.104L470.062 920.104C473.515 919.735 478.255 919.813 481.931 919.782Z" fill="#FEFEFE" stroke="#FD01BA" stroke-width="0.592219"/>
<path d="M178.486 262.9C177.816 263.291 176.849 263.839 175.625 264.521C173.177 265.886 169.706 267.787 165.537 270.05C157.201 274.574 146.08 280.543 134.794 286.555C123.508 292.566 112.057 298.62 103.06 303.314C94.533 307.764 88.2315 310.978 86.3479 311.792C85.4441 309.404 84.5853 306.559 83.7825 304.102C81.1758 292.677 77.9506 280.068 76.8381 268.444C108.173 273.629 147.505 267.416 178.855 262.678C178.744 262.744 178.622 262.821 178.486 262.9Z" fill="#FEFEFE" stroke="#FD01BA" stroke-width="0.592219"/>
<path d="M484.459 887.669C484.483 897.823 483.988 904.77 482.393 914.705C452.491 915.087 420.219 922.519 394.02 938.774L394.012 938.778C393.057 939.409 392.498 939.811 391.896 940.131C391.337 940.428 390.74 940.652 389.76 940.903C389.058 940.102 388.946 939.022 389.187 937.905C389.44 936.73 390.076 935.57 390.73 934.792C411.792 909.77 448.284 893.425 477.744 888.299L484.459 887.669Z" fill="#FEFEFE" stroke="#FD01BA" stroke-width="0.592219"/>
<path d="M472.032 773.433C472.373 773.773 472.74 774.409 473.114 775.324C473.504 776.282 473.89 777.504 474.266 778.915C475.017 781.737 475.724 785.287 476.359 788.931C476.993 792.572 477.556 796.301 478.021 799.479C478.453 802.428 478.804 804.909 479.048 806.397C456.156 808.09 428.319 807.472 405.279 805.378L405.27 805.377H405.261C402.191 805.274 398.834 804.786 395.673 804.359C421.986 794.707 446.378 785.279 472.032 773.433Z" fill="#FEFEFE" stroke="#FD01BA" stroke-width="0.592219"/>
<path d="M200.017 755.854C205.727 757.707 217.168 762.57 228.614 767.767C240.103 772.982 251.571 778.52 257.219 781.658C256.487 786.13 255.789 790.666 255.006 795.104C254.73 796.67 254.587 797.524 254.29 798.166C254.017 798.754 253.605 799.174 252.748 799.795C246.551 797.802 234.163 793.343 222.081 788.435C215.993 785.962 209.987 783.376 204.89 780.937C199.901 778.548 195.805 776.308 193.355 774.458C195.469 768.052 197.24 761.918 200.017 755.854Z" fill="#FEFEFE" stroke="#FD01BA" stroke-width="0.592219"/>
<path d="M211.911 731.728C216.541 733.318 226.031 738.009 230.455 740.22C241.383 745.688 253.097 751.309 263.728 757.337C263.415 758.431 263.04 759.943 262.618 761.635C262.165 763.45 261.655 765.478 261.101 767.438C260.546 769.398 259.949 771.285 259.323 772.818C259.011 773.585 258.692 774.258 258.372 774.806C258.09 775.289 257.812 775.662 257.544 775.916L255.926 775.473C237.68 766.785 220.3 759.326 201.939 751.189C205.09 743.636 207.602 738.539 211.911 731.728Z" fill="#FEFEFE" stroke="#FD01BA" stroke-width="0.592219"/>
<path d="M475.161 949.932L475.719 950.706C475.599 953.562 474.262 958.126 472.601 962.67C470.959 967.162 469.018 971.591 467.687 974.246C441.751 974.316 425.835 976.833 400.699 981.447C400.354 980.982 399.814 980.269 399.337 979.555C399.072 979.157 398.833 978.766 398.662 978.426C398.485 978.071 398.407 977.819 398.41 977.68C398.435 976.861 399.023 975.952 400.029 975.006C401.022 974.072 402.368 973.153 403.788 972.31C406.637 970.619 409.703 969.281 410.771 968.729C430.98 958.235 452.204 952.039 474.463 949.91L475.161 949.932Z" fill="#FEFEFE" stroke="#FD01BA" stroke-width="0.592219"/>
<path d="M226.031 710.374C227.002 710.523 228.261 710.972 229.749 711.682C231.317 712.429 233.118 713.454 235.074 714.681C238.986 717.135 243.498 720.391 247.963 723.849C256.793 730.686 265.409 738.29 268.816 741.997L265.104 752.525L260.51 750.373C252.727 746.087 245.004 742.312 237.305 738.606C229.685 734.939 222.091 731.338 214.474 727.372C217.442 721.596 222.09 715.469 226.031 710.374Z" fill="#FEFEFE" stroke="#FD01BA" stroke-width="0.592219"/>
<path d="M560.064 1047.31C561.927 1048.08 563.224 1049.19 564.146 1050.52C565.113 1051.92 565.677 1053.59 566.034 1055.42C566.391 1057.26 566.538 1059.24 566.682 1061.26C566.807 1063.03 566.931 1064.83 567.194 1066.56L567.315 1067.3C568.004 1071.13 568.182 1076.26 567.118 1079.91C566.334 1082.38 564.108 1084.5 561.095 1086.1C558.088 1087.69 554.336 1088.74 550.578 1089.11C546.818 1089.47 543.074 1089.14 540.078 1087.99C537.179 1086.87 535.004 1085.01 534.149 1082.28L534.071 1082.01C532.233 1074.55 531.272 1061.8 532.25 1054.05C533.346 1052.74 534.386 1051.41 535.592 1050.29C536.459 1052.11 538.125 1053.37 540.169 1054.12C542.354 1054.92 544.996 1055.15 547.641 1054.86C552.804 1054.29 558.109 1051.72 560.064 1047.31Z" fill="#707070" stroke="#FD01BA" stroke-width="0.592219"/>
</g>
<defs>
<filter id="filter0_i_492_329" x="0" y="0" width="708" height="1094.91" filterUnits="userSpaceOnUse" color-interpolation-filters="sRGB">
<feFlood flood-opacity="0" result="BackgroundImageFix"/>
<feBlend mode="normal" in="SourceGraphic" in2="BackgroundImageFix" result="shape"/>
<feColorMatrix in="SourceAlpha" type="matrix" values="0 0 0 0 0 0 0 0 0 0 0 0 0 0 0 0 0 0 127 0" result="hardAlpha"/>
<feOffset dy="5.37381"/>
<feGaussianBlur stdDeviation="36.5419"/>
<feComposite in2="hardAlpha" operator="arithmetic" k2="-1" k3="1"/>
<feColorMatrix type="matrix" values="0 0 0 0 0.992157 0 0 0 0 0.00392157 0 0 0 0 0.729412 0 0 0 1 0"/>
<feBlend mode="normal" in2="shape" result="effect1_innerShadow_492_329"/>
</filter>
</defs>
</svg>
