<svg width="848" height="674" viewBox="0 0 848 674" fill="none" xmlns="http://www.w3.org/2000/svg">
<mask id="path-1-outside-1_540_327" maskUnits="userSpaceOnUse" x="-0.492096" y="-0.492188" width="848" height="674" fill="black">
<rect fill="white" x="-0.492096" y="-0.492188" width="848" height="674"/>
<path d="M165.945 56.7191C164.469 49.3318 161.75 27.1382 158.755 22.0228C157.424 19.7525 155.105 18.113 152.958 16.6844C142.865 9.97662 130.168 3.97716 117.717 5.8577C113.852 11.925 104.352 24.0998 101.624 29.6325C93.7231 28.95 82.528 27.1997 74.5434 26.1851C54.7794 23.6729 58.9518 25.5965 52.0301 42.3279C41.4498 67.8921 29.7276 93.5525 15.6865 117.375C14.9486 118.635 13.8067 130.825 13.5695 132.998C12.8536 139.119 12.063 145.23 11.1978 151.331C10.1349 159.153 8.97556 166.961 7.71067 174.753C6.84106 180.238 5.85724 185.722 5.51906 191.258C5.38291 193.416 6.5072 194.839 8.08831 196.207C21.2379 207.582 27.3604 222.53 32.7537 239.004C32.7274 237.769 32.5077 234.494 32.925 233.542C32.824 233.446 38.1866 245.732 38.6653 246.814L38.1953 248.221C36.9832 253.499 38.7312 262.85 37.6991 268.724C37.0534 272.364 36.768 278.843 37.6859 282.402C41.8803 287.918 54.2217 293.987 60.9502 296.249C86.7663 304.925 115.055 307.967 141.082 315.675C138.051 339.427 119.702 425.258 132.517 443.573C134.617 444.491 139.628 446.191 140.972 447.008C139.575 465.113 140.621 476.221 152.233 491.436C144.086 502.728 142.123 513.678 144.415 526.266C147.073 540.862 152.668 551.781 164.9 558.87C166.09 559.559 168.712 575.697 172.871 577.831C178.567 584.27 184.87 589.238 192.508 593.301C215.451 604.202 245.005 608.467 270.123 605.314C280.106 604.062 296.971 594.926 302.412 587.007C302.768 586.488 303.106 585.957 303.427 585.412C319.805 584.907 338.264 588.838 354.769 588.957C358.858 588.983 363.233 589.282 367.3 589.66L394.315 592.001C397.402 592.282 401.241 593.042 404.175 593.138C400.235 603.376 394.881 612.829 390.314 622.729C383.427 637.654 375.183 652.583 368.876 667.714H587.821C591.771 638.435 590.193 613.571 579.587 585.711C577.136 579.272 572.96 573.171 570.796 567.404L570.611 566.903C579.06 567.11 587.511 567.18 595.961 567.114C599.895 567.048 610.718 566.012 613.597 567.136C623.25 570.905 631.655 578.442 641.872 581.156C642.827 573.768 642.934 566.46 643.883 559.076C647.939 560.025 653.085 560.578 657.356 561.351L689.108 567.202L716.503 572.091C722.678 573.149 728.703 574.66 734.949 574.533C733.174 570.074 731.504 564.22 729.706 559.458C724.875 546.949 720.379 534.317 716.223 521.567C714.099 515.04 711.498 507.744 710.575 501.015C717.884 498.397 732.895 490.671 740.397 487.136C752.242 481.549 765.515 475.935 776.87 469.808C775.315 468.28 773.621 466.475 772.142 464.876C764.068 456.131 754.045 447.882 746.434 438.808C766.934 423.004 788.652 408.276 809.278 392.594C818.167 385.836 827.434 378.871 836.508 372.415C817.806 362.717 798.971 353.278 780.009 344.1C770.705 339.633 760.766 335.672 751.642 330.931C755.013 318.725 760.228 306.534 764.455 294.476C773.345 269.207 781.342 243.632 788.428 217.8C791.966 205.024 796.038 191.668 797.771 178.503C790.8 181.026 780.38 186.313 773.553 189.66C756.37 198.251 739.343 207.148 722.479 216.35C713.878 221.043 705.331 225.835 696.839 230.724C693.544 232.649 680.904 240.757 678.591 240.518C677.503 236.296 676.997 228.186 676.296 223.402C671.221 188.763 663.98 154.422 654.782 120.648C650.759 105.876 647.155 90.987 642.395 76.4649C637.18 78.7673 630.968 85.2353 626.82 89.2283C597.214 117.724 574.539 151.271 549.917 183.802C548.506 180.749 546.487 173.887 545.423 170.537C543.086 163.119 540.694 155.718 538.246 148.336C537.104 144.855 535.948 141.164 534.652 137.743C528.069 120.357 522.335 102.482 515.221 85.321C510.922 88.3161 504.855 97.8156 501.664 102.339C482.107 130.558 465.199 160.525 451.157 191.858C445.69 203.905 440.727 217.455 435.408 228.96C424.501 225.966 407.78 216.723 396.533 212.403C394.872 222.81 396.159 234.148 395.817 244.523C394.859 273.759 399.304 303.802 398.79 332.88C384.793 341.736 379.786 342.984 363.839 347.241L362.332 348.426L357.707 348.33L357.62 347.789C362.165 330.021 367.247 319.343 381.196 307.017C382.737 300.939 382.606 296.704 383.778 291.102C386.8 276.68 390.327 262.264 392.997 247.774C393.476 245.17 392 240.572 392.119 237.746C391.912 221.04 397.046 206.259 384.305 192.797C386.137 178.991 389.874 164.088 371.112 160.851C366.338 160.027 355.503 154.749 350.663 157.003C348.95 157.8 345.379 161.031 344.857 162.918L344.523 163.632C340.548 161.499 324.645 151.46 322.449 151.319C321.97 152.068 322.009 152.022 321.873 152.905C316.383 146.027 315.865 146.953 308.333 142.63C301.341 138.574 294.379 134.467 287.449 130.309L205.047 80.1908L176.42 63.1125C174.158 61.7368 167.574 57.9946 165.945 56.7191ZM477.225 385.917C466.489 398.174 462.365 409.055 463.584 425.789C464.528 438.733 470.95 452.534 480.695 461.327C499.255 476.643 516.327 463.98 523.765 445.357C527.07 454.932 529.205 463.488 526.954 473.687C523.058 488.633 511.622 496.693 496.286 491.734C458.846 479.634 426.508 431.055 437.618 391.754C439.947 383.512 444.718 371.844 451.974 366.983L452.832 366.891C463.004 372.231 469.651 376.914 477.225 385.917ZM592.848 491.475C594.689 485.95 599.417 477.6 603.543 473.537C603.874 476.414 604.374 482.967 605.303 485.462C623.865 535.345 683.646 480.609 658.641 445.194C668.094 440.688 677.753 438.527 688.166 437.811C693.633 453.759 691.818 468.807 684.507 483.802C676.931 499.632 663.42 511.829 646.906 517.758C636.324 521.439 625.374 522.976 614.239 521.329C593.829 518.312 585.851 512.558 592.848 491.475Z"/>
<path fill-rule="evenodd" clip-rule="evenodd" d="M603.543 473.537C599.417 477.6 594.689 485.95 592.848 491.475C585.851 512.558 593.829 518.312 614.239 521.329C625.374 522.976 636.324 521.439 646.906 517.758C663.42 511.829 676.931 499.632 684.507 483.802C691.818 468.807 693.633 453.759 688.166 437.811C677.753 438.527 668.094 440.688 658.641 445.194C683.646 480.609 623.865 535.345 605.303 485.462C604.555 483.454 604.085 478.816 603.758 475.583C603.678 474.8 603.607 474.098 603.543 473.537Z"/>
<path fill-rule="evenodd" clip-rule="evenodd" d="M463.584 425.789C462.365 409.055 466.489 398.174 477.225 385.917C469.651 376.914 463.004 372.231 452.832 366.891L451.974 366.983C444.718 371.844 439.947 383.512 437.618 391.754C426.508 431.055 458.846 479.634 496.286 491.734C511.622 496.693 523.058 488.633 526.954 473.687C529.205 463.488 527.07 454.932 523.765 445.357C516.327 463.98 499.255 476.643 480.695 461.327C470.95 452.534 464.528 438.733 463.584 425.789Z"/>
</mask>
<g filter="url(#filter0_i_540_327)">
<path d="M165.945 56.7191C164.469 49.3318 161.75 27.1382 158.755 22.0228C157.424 19.7525 155.105 18.113 152.958 16.6844C142.865 9.97662 130.168 3.97716 117.717 5.8577C113.852 11.925 104.352 24.0998 101.624 29.6325C93.7231 28.95 82.528 27.1997 74.5434 26.1851C54.7794 23.6729 58.9518 25.5965 52.0301 42.3279C41.4498 67.8921 29.7276 93.5525 15.6865 117.375C14.9486 118.635 13.8067 130.825 13.5695 132.998C12.8536 139.119 12.063 145.23 11.1978 151.331C10.1349 159.153 8.97556 166.961 7.71067 174.753C6.84106 180.238 5.85724 185.722 5.51906 191.258C5.38291 193.416 6.5072 194.839 8.08831 196.207C21.2379 207.582 27.3604 222.53 32.7537 239.004C32.7274 237.769 32.5077 234.494 32.925 233.542C32.824 233.446 38.1866 245.732 38.6653 246.814L38.1953 248.221C36.9832 253.499 38.7312 262.85 37.6991 268.724C37.0534 272.364 36.768 278.843 37.6859 282.402C41.8803 287.918 54.2217 293.987 60.9502 296.249C86.7663 304.925 115.055 307.967 141.082 315.675C138.051 339.427 119.702 425.258 132.517 443.573C134.617 444.491 139.628 446.191 140.972 447.008C139.575 465.113 140.621 476.221 152.233 491.436C144.086 502.728 142.123 513.678 144.415 526.266C147.073 540.862 152.668 551.781 164.9 558.87C166.09 559.559 168.712 575.697 172.871 577.831C178.567 584.27 184.87 589.238 192.508 593.301C215.451 604.202 245.005 608.467 270.123 605.314C280.106 604.062 296.971 594.926 302.412 587.007C302.768 586.488 303.106 585.957 303.427 585.412C319.805 584.907 338.264 588.838 354.769 588.957C358.858 588.983 363.233 589.282 367.3 589.66L394.315 592.001C397.402 592.282 401.241 593.042 404.175 593.138C400.235 603.376 394.881 612.829 390.314 622.729C383.427 637.654 375.183 652.583 368.876 667.714H587.821C591.771 638.435 590.193 613.571 579.587 585.711C577.136 579.272 572.96 573.171 570.796 567.404L570.611 566.903C579.06 567.11 587.511 567.18 595.961 567.114C599.895 567.048 610.718 566.012 613.597 567.136C623.25 570.905 631.655 578.442 641.872 581.156C642.827 573.768 642.934 566.46 643.883 559.076C647.939 560.025 653.085 560.578 657.356 561.351L689.108 567.202L716.503 572.091C722.678 573.149 728.703 574.66 734.949 574.533C733.174 570.074 731.504 564.22 729.706 559.458C724.875 546.949 720.379 534.317 716.223 521.567C714.099 515.04 711.498 507.744 710.575 501.015C717.884 498.397 732.895 490.671 740.397 487.136C752.242 481.549 765.515 475.935 776.87 469.808C775.315 468.28 773.621 466.475 772.142 464.876C764.068 456.131 754.045 447.882 746.434 438.808C766.934 423.004 788.652 408.276 809.278 392.594C818.167 385.836 827.434 378.871 836.508 372.415C817.806 362.717 798.971 353.278 780.009 344.1C770.705 339.633 760.766 335.672 751.642 330.931C755.013 318.725 760.228 306.534 764.455 294.476C773.345 269.207 781.342 243.632 788.428 217.8C791.966 205.024 796.038 191.668 797.771 178.503C790.8 181.026 780.38 186.313 773.553 189.66C756.37 198.251 739.343 207.148 722.479 216.35C713.878 221.043 705.331 225.835 696.839 230.724C693.544 232.649 680.904 240.757 678.591 240.518C677.503 236.296 676.997 228.186 676.296 223.402C671.221 188.763 663.98 154.422 654.782 120.648C650.759 105.876 647.155 90.987 642.395 76.4649C637.18 78.7673 630.968 85.2353 626.82 89.2283C597.214 117.724 574.539 151.271 549.917 183.802C548.506 180.749 546.487 173.887 545.423 170.537C543.086 163.119 540.694 155.718 538.246 148.336C537.104 144.855 535.948 141.164 534.652 137.743C528.069 120.357 522.335 102.482 515.221 85.321C510.922 88.3161 504.855 97.8156 501.664 102.339C482.107 130.558 465.199 160.525 451.157 191.858C445.69 203.905 440.727 217.455 435.408 228.96C424.501 225.966 407.78 216.723 396.533 212.403C394.872 222.81 396.159 234.148 395.817 244.523C394.859 273.759 399.304 303.802 398.79 332.88C384.793 341.736 379.786 342.984 363.839 347.241L362.332 348.426L357.707 348.33L357.62 347.789C362.165 330.021 367.247 319.343 381.196 307.017C382.737 300.939 382.606 296.704 383.778 291.102C386.8 276.68 390.327 262.264 392.997 247.774C393.476 245.17 392 240.572 392.119 237.746C391.912 221.04 397.046 206.259 384.305 192.797C386.137 178.991 389.874 164.088 371.112 160.851C366.338 160.027 355.503 154.749 350.663 157.003C348.95 157.8 345.379 161.031 344.857 162.918L344.523 163.632C340.548 161.499 324.645 151.46 322.449 151.319C321.97 152.068 322.009 152.022 321.873 152.905C316.383 146.027 315.865 146.953 308.333 142.63C301.341 138.574 294.379 134.467 287.449 130.309L205.047 80.1908L176.42 63.1125C174.158 61.7368 167.574 57.9946 165.945 56.7191ZM477.225 385.917C466.489 398.174 462.365 409.055 463.584 425.789C464.528 438.733 470.95 452.534 480.695 461.327C499.255 476.643 516.327 463.98 523.765 445.357C527.07 454.932 529.205 463.488 526.954 473.687C523.058 488.633 511.622 496.693 496.286 491.734C458.846 479.634 426.508 431.055 437.618 391.754C439.947 383.512 444.718 371.844 451.974 366.983L452.832 366.891C463.004 372.231 469.651 376.914 477.225 385.917ZM592.848 491.475C594.689 485.95 599.417 477.6 603.543 473.537C603.874 476.414 604.374 482.967 605.303 485.462C623.865 535.345 683.646 480.609 658.641 445.194C668.094 440.688 677.753 438.527 688.166 437.811C693.633 453.759 691.818 468.807 684.507 483.802C676.931 499.632 663.42 511.829 646.906 517.758C636.324 521.439 625.374 522.976 614.239 521.329C593.829 518.312 585.851 512.558 592.848 491.475Z" fill="black"/>
<path fill-rule="evenodd" clip-rule="evenodd" d="M603.543 473.537C599.417 477.6 594.689 485.95 592.848 491.475C585.851 512.558 593.829 518.312 614.239 521.329C625.374 522.976 636.324 521.439 646.906 517.758C663.42 511.829 676.931 499.632 684.507 483.802C691.818 468.807 693.633 453.759 688.166 437.811C677.753 438.527 668.094 440.688 658.641 445.194C683.646 480.609 623.865 535.345 605.303 485.462C604.555 483.454 604.085 478.816 603.758 475.583C603.678 474.8 603.607 474.098 603.543 473.537Z" fill="black"/>
<path fill-rule="evenodd" clip-rule="evenodd" d="M603.543 473.537C599.417 477.6 594.689 485.95 592.848 491.475C585.851 512.558 593.829 518.312 614.239 521.329C625.374 522.976 636.324 521.439 646.906 517.758C663.42 511.829 676.931 499.632 684.507 483.802C691.818 468.807 693.633 453.759 688.166 437.811C677.753 438.527 668.094 440.688 658.641 445.194C683.646 480.609 623.865 535.345 605.303 485.462C604.555 483.454 604.085 478.816 603.758 475.583C603.678 474.8 603.607 474.098 603.543 473.537Z" fill="white"/>
<path fill-rule="evenodd" clip-rule="evenodd" d="M463.584 425.789C462.365 409.055 466.489 398.174 477.225 385.917C469.651 376.914 463.004 372.231 452.832 366.891L451.974 366.983C444.718 371.844 439.947 383.512 437.618 391.754C426.508 431.055 458.846 479.634 496.286 491.734C511.622 496.693 523.058 488.633 526.954 473.687C529.205 463.488 527.07 454.932 523.765 445.357C516.327 463.98 499.255 476.643 480.695 461.327C470.95 452.534 464.528 438.733 463.584 425.789Z" fill="black"/>
<path fill-rule="evenodd" clip-rule="evenodd" d="M463.584 425.789C462.365 409.055 466.489 398.174 477.225 385.917C469.651 376.914 463.004 372.231 452.832 366.891L451.974 366.983C444.718 371.844 439.947 383.512 437.618 391.754C426.508 431.055 458.846 479.634 496.286 491.734C511.622 496.693 523.058 488.633 526.954 473.687C529.205 463.488 527.07 454.932 523.765 445.357C516.327 463.98 499.255 476.643 480.695 461.327C470.95 452.534 464.528 438.733 463.584 425.789Z" fill="white"/>
</g>
<path d="M477.225 385.917L479.332 384.145L480.854 385.953L479.296 387.732L477.225 385.917ZM463.584 425.789L460.838 425.989V425.989L463.584 425.789ZM480.695 461.327L478.942 463.451L478.895 463.412L478.85 463.371L480.695 461.327ZM523.765 445.357L521.207 444.335L523.953 437.461L526.368 444.458L523.765 445.357ZM526.954 473.687L529.643 474.28L529.632 474.331L529.619 474.381L526.954 473.687ZM496.286 491.734L497.133 489.114L497.133 489.114L496.286 491.734ZM437.618 391.754L440.268 392.503L440.268 392.503L437.618 391.754ZM451.974 366.983L450.442 364.695L451.006 364.317L451.681 364.245L451.974 366.983ZM452.832 366.891L452.54 364.153L453.372 364.064L454.113 364.453L452.832 366.891ZM592.848 491.475L590.234 490.608L590.235 490.605L592.848 491.475ZM658.641 445.194L656.392 446.782L654.508 444.114L657.456 442.708L658.641 445.194ZM688.166 437.811L687.977 435.064L690.086 434.919L690.771 436.918L688.166 437.811ZM684.507 483.802L682.023 482.613L682.027 482.604L682.032 482.595L684.507 483.802ZM646.906 517.758L647.836 520.35L647.823 520.355L647.81 520.359L646.906 517.758ZM614.239 521.329L614.642 518.605L614.642 518.605L614.239 521.329ZM477.225 385.917L479.296 387.732C474.08 393.687 470.59 399.171 468.52 405.084C466.453 410.989 465.741 417.499 466.331 425.589L463.584 425.789L460.838 425.989C460.208 417.345 460.948 410.048 463.322 403.264C465.694 396.489 469.634 390.404 475.153 384.103L477.225 385.917ZM463.584 425.789L466.331 425.589C467.225 437.864 473.35 450.99 482.54 459.282L480.695 461.327L478.85 463.371C468.55 454.077 461.83 439.603 460.838 425.989L463.584 425.789ZM480.695 461.327L482.447 459.203C491.013 466.271 498.789 466.643 505.217 463.583C511.899 460.402 517.644 453.258 521.207 444.335L523.765 445.357L526.322 446.378C522.448 456.078 515.939 464.578 507.585 468.555C498.978 472.653 488.937 471.698 478.942 463.451L480.695 461.327ZM523.765 445.357L526.368 444.458C529.715 454.157 532.063 463.315 529.643 474.28L526.954 473.687L524.265 473.093C526.347 463.661 524.424 455.706 521.162 446.255L523.765 445.357ZM526.954 473.687L529.619 474.381C527.54 482.353 523.37 488.79 517.361 492.515C511.302 496.272 503.747 497.041 495.439 494.354L496.286 491.734L497.133 489.114C504.161 491.387 509.992 490.605 514.459 487.835C518.976 485.034 522.471 479.967 524.29 472.992L526.954 473.687ZM496.286 491.734L495.439 494.355C475.969 488.062 458.042 472.39 446.398 453.383C434.755 434.378 429.143 411.612 434.968 391.005L437.618 391.754L440.268 392.503C434.983 411.198 439.984 432.371 451.094 450.506C462.201 468.638 479.163 483.306 497.133 489.114L496.286 491.734ZM437.618 391.754L434.968 391.005C436.168 386.758 438.007 381.59 440.51 376.821C442.988 372.101 446.257 367.499 450.442 364.695L451.974 366.983L453.507 369.27C450.436 371.328 447.691 374.99 445.387 379.38C443.108 383.721 441.396 388.509 440.268 392.503L437.618 391.754ZM451.974 366.983L451.681 364.245L452.54 364.153L452.832 366.891L453.125 369.629L452.267 369.721L451.974 366.983ZM452.832 366.891L454.113 364.453C464.512 369.913 471.471 374.801 479.332 384.145L477.225 385.917L475.117 387.69C467.83 379.028 461.496 374.55 451.552 369.329L452.832 366.891ZM592.848 491.475L590.235 490.605C591.233 487.611 592.969 483.964 594.963 480.564C596.949 477.181 599.304 473.847 601.611 471.575L603.543 473.537L605.475 475.499C603.656 477.29 601.584 480.163 599.714 483.351C597.853 486.523 596.304 489.814 595.46 492.346L592.848 491.475ZM605.303 485.462L607.884 484.502C612.292 496.348 618.867 501.362 625.446 502.48C632.206 503.629 639.846 500.828 646.539 495.206C660.073 483.839 667.745 462.862 656.392 446.782L658.641 445.194L660.891 443.606C674.543 462.941 664.826 487.039 650.081 499.423C642.634 505.677 633.411 509.42 624.523 507.91C615.454 506.368 607.595 499.518 602.722 486.423L605.303 485.462ZM658.641 445.194L657.456 442.708C667.279 438.026 677.288 435.798 687.977 435.064L688.166 437.811L688.355 440.558C678.218 441.255 668.909 443.35 659.826 447.68L658.641 445.194ZM688.166 437.811L690.771 436.918C696.509 453.656 694.562 469.461 686.982 485.009L684.507 483.802L682.032 482.595C689.073 468.153 690.757 453.862 685.561 438.704L688.166 437.811ZM684.507 483.802L686.991 484.991C679.102 501.475 665.033 514.176 647.836 520.35L646.906 517.758L645.975 515.167C661.808 509.482 674.761 497.789 682.023 482.613L684.507 483.802ZM646.906 517.758L647.81 520.359C636.893 524.156 625.492 525.777 613.836 524.053L614.239 521.329L614.642 518.605C625.257 520.175 635.754 518.722 646.001 515.158L646.906 517.758ZM614.239 521.329L613.836 524.053C608.661 523.288 604.12 522.33 600.35 520.94C596.576 519.549 593.396 517.662 591.141 514.929C586.501 509.303 586.681 501.316 590.234 490.608L592.848 491.475L595.461 492.343C592.018 502.718 592.688 508.148 595.39 511.425C596.807 513.142 599.01 514.577 602.254 515.773C605.502 516.969 609.611 517.862 614.642 518.605L614.239 521.329ZM165.945 56.7191L162.55 61.0558L160.944 59.7983L160.544 57.7979L165.945 56.7191ZM158.755 22.0228L163.506 19.2377L163.508 19.2399L158.755 22.0228ZM152.958 16.6844L156.006 12.0976L156.008 12.0989L152.958 16.6844ZM117.717 5.8577L113.072 2.89881L114.417 0.786187L116.894 0.412117L117.717 5.8577ZM101.624 29.6325L106.564 32.0677L104.9 35.4434L101.15 35.1195L101.624 29.6325ZM74.5434 26.1851L73.8491 31.6485L73.8489 31.6485L74.5434 26.1851ZM52.0301 42.3279L57.1191 44.4332L57.1188 44.434L52.0301 42.3279ZM15.6864 117.375L10.9339 114.592L10.9379 114.586L10.9419 114.579L15.6864 117.375ZM13.5695 132.998L19.0443 133.596L19.0421 133.617L19.0396 133.638L13.5695 132.998ZM11.1978 151.331L5.74063 150.59L5.74277 150.574L5.74503 150.558L11.1978 151.331ZM7.71066 174.753L2.27127 173.891L2.27286 173.88L2.27451 173.87L7.71066 174.753ZM5.51907 191.258L11.0161 191.594L11.0155 191.605L5.51907 191.258ZM8.08829 196.207L4.48526 200.372L4.4852 200.372L8.08829 196.207ZM32.7537 239.004L38.2598 238.886L27.5197 240.717L32.7537 239.004ZM32.925 233.542L36.7228 229.554L39.5198 232.217L37.9686 235.754L32.925 233.542ZM38.6653 246.814L43.7019 244.586L44.5644 246.536L43.8891 248.558L38.6653 246.814ZM38.1953 248.221L32.8277 246.988L32.8873 246.729L32.9715 246.477L38.1953 248.221ZM37.6991 268.724L43.1233 269.677L43.1217 269.686L37.6991 268.724ZM37.6859 282.402L33.302 285.735L32.6303 284.852L32.3531 283.777L37.6859 282.402ZM60.9502 296.249L59.1958 301.47L59.1949 301.47L60.9502 296.249ZM141.082 315.675L142.646 310.394L147.138 311.725L146.545 316.372L141.082 315.675ZM132.517 443.573L130.311 448.619L128.893 447.999L128.005 446.731L132.517 443.573ZM140.972 447.008L143.833 442.302L146.723 444.059L146.463 447.432L140.972 447.008ZM152.233 491.436L156.611 488.094L159.091 491.343L156.699 494.658L152.233 491.436ZM144.415 526.266L149.834 525.279L149.834 525.28L144.415 526.266ZM164.9 558.87L162.139 563.635L162.138 563.635L164.9 558.87ZM172.871 577.831L175.386 572.931L176.309 573.405L176.996 574.182L172.871 577.831ZM192.508 593.301L190.144 598.275L190.031 598.221L189.921 598.163L192.508 593.301ZM270.123 605.314L269.436 599.849L269.437 599.849L270.123 605.314ZM302.412 587.007L306.953 590.123L306.951 590.126L302.412 587.007ZM303.427 585.412L298.681 582.618L300.222 580.001L303.257 579.907L303.427 585.412ZM354.769 588.957L354.734 594.464L354.73 594.464L354.769 588.957ZM367.3 589.66L366.824 595.146L366.807 595.145L366.79 595.143L367.3 589.66ZM394.315 592.001L394.79 586.514L394.802 586.515L394.814 586.516L394.315 592.001ZM404.175 593.138L404.356 587.634L412.096 587.889L409.315 595.116L404.175 593.138ZM390.314 622.729L395.314 625.036L395.314 625.036L390.314 622.729ZM368.876 667.714V673.221H360.614L363.793 665.595L368.876 667.714ZM587.821 667.714L593.279 668.451L592.635 673.221H587.821V667.714ZM579.587 585.711L574.44 587.67L574.44 587.67L579.587 585.711ZM570.796 567.404L565.639 569.339L565.634 569.323L565.628 569.308L570.796 567.404ZM570.611 566.903L565.443 568.807L562.641 561.2L570.746 561.398L570.611 566.903ZM595.961 567.114L596.054 572.621L596.029 572.621L596.004 572.621L595.961 567.114ZM613.597 567.136L611.594 572.266L611.594 572.266L613.597 567.136ZM641.872 581.156L647.333 581.862L646.528 588.092L640.457 586.479L641.872 581.156ZM643.883 559.076L638.42 558.374L639.198 552.324L645.137 553.714L643.883 559.076ZM657.356 561.352L658.337 555.932L658.345 555.934L658.354 555.935L657.356 561.352ZM689.108 567.202L688.141 572.624L688.125 572.621L688.11 572.618L689.108 567.202ZM716.503 572.091L715.572 577.519L715.554 577.516L715.535 577.512L716.503 572.091ZM734.949 574.533L740.066 572.495L743.005 579.877L735.062 580.039L734.949 574.533ZM729.706 559.458L734.844 557.474L734.851 557.494L734.859 557.514L729.706 559.458ZM716.223 521.567L710.986 523.273L710.985 523.27L716.223 521.567ZM710.575 501.015L705.119 501.763L704.512 497.337L708.718 495.83L710.575 501.015ZM740.397 487.136L742.747 492.117L742.745 492.117L740.397 487.136ZM776.87 469.808L780.731 465.881L786.052 471.112L779.485 474.655L776.87 469.808ZM772.142 464.876L768.099 468.615L768.096 468.612L772.142 464.876ZM746.434 438.808L742.215 442.347L738.526 437.95L743.072 434.446L746.434 438.808ZM809.278 392.594L812.612 396.978L812.612 396.978L809.278 392.594ZM836.508 372.415L839.043 367.525L847.046 371.675L839.701 376.902L836.508 372.415ZM780.009 344.1L782.393 339.136L782.401 339.139L782.408 339.143L780.009 344.1ZM751.642 330.931L749.102 335.818L745.146 333.763L746.333 329.465L751.642 330.931ZM764.455 294.476L759.258 292.654L759.26 292.648L764.455 294.476ZM788.428 217.8L783.117 216.343L783.12 216.33L788.428 217.8ZM797.771 178.503L795.896 173.324L804.413 170.242L803.231 179.222L797.771 178.503ZM773.553 189.66L771.09 184.734L771.11 184.725L771.129 184.715L773.553 189.66ZM722.479 216.35L719.841 211.515L719.842 211.515L722.479 216.35ZM696.839 230.724L694.062 225.969L694.077 225.96L694.091 225.951L696.839 230.724ZM678.591 240.518L678.024 245.996L674.213 245.601L673.258 241.891L678.591 240.518ZM676.296 223.402L670.847 224.2V224.2L676.296 223.402ZM654.782 120.648L660.096 119.201L660.096 119.201L654.782 120.648ZM642.395 76.4649L640.171 71.4267L645.734 68.9707L647.628 74.7495L642.395 76.4649ZM626.82 89.2283L630.639 93.1961L630.639 93.1963L626.82 89.2283ZM549.917 183.802L554.308 187.126L548.768 194.446L544.918 186.112L549.917 183.802ZM545.423 170.537L540.174 172.205L540.17 172.191L545.423 170.537ZM538.246 148.336L533.018 150.069L533.016 150.061L533.013 150.053L538.246 148.336ZM534.652 137.743L539.803 135.793L539.803 135.793L534.652 137.743ZM515.221 85.321L512.074 80.8019L517.689 76.8907L520.309 83.2121L515.221 85.321ZM501.664 102.339L497.138 99.2017L497.151 99.183L497.164 99.1644L501.664 102.339ZM451.157 191.858L456.183 194.11L456.178 194.122L456.172 194.134L451.157 191.858ZM435.408 228.96L440.407 231.271L438.449 235.505L433.951 234.271L435.408 228.96ZM396.533 212.403L391.094 211.536L392.164 204.826L398.507 207.262L396.533 212.403ZM395.817 244.523L390.312 244.343L390.312 244.341L395.817 244.523ZM398.79 332.88L404.297 332.977L404.244 335.946L401.735 337.534L398.79 332.88ZM363.839 347.241L360.434 342.912L361.324 342.212L362.418 341.92L363.839 347.241ZM362.332 348.426L365.736 352.755L364.188 353.973L362.218 353.932L362.332 348.426ZM357.707 348.33L357.593 353.836L353.007 353.74L352.271 349.212L357.707 348.33ZM357.62 347.789L352.183 348.671L351.999 347.537L352.284 346.424L357.62 347.789ZM381.196 307.017L386.534 308.371L386.116 310.019L384.842 311.144L381.196 307.017ZM383.778 291.102L378.388 289.974L378.388 289.973L383.778 291.102ZM392.997 247.774L398.414 248.769L398.413 248.772L392.997 247.774ZM392.119 237.746L397.626 237.678L397.627 237.828L397.621 237.977L392.119 237.746ZM384.305 192.797L380.305 196.583L378.5 194.676L378.846 192.073L384.305 192.797ZM371.112 160.851L370.175 166.279L370.175 166.279L371.112 160.851ZM350.663 157.003L352.987 161.996L352.985 161.996L350.663 157.003ZM344.857 162.918L350.164 164.388L350.041 164.834L349.845 165.253L344.857 162.918ZM344.523 163.632L349.511 165.966L347.045 171.235L341.919 168.484L344.523 163.632ZM322.449 151.319L317.809 148.352L319.559 145.616L322.8 145.823L322.449 151.319ZM321.873 152.905L327.316 153.744L325.402 166.154L317.569 156.34L321.873 152.905ZM308.333 142.63L305.591 147.406L305.58 147.4L305.569 147.394L308.333 142.63ZM287.449 130.309L284.616 135.031L284.601 135.023L284.587 135.014L287.449 130.309ZM205.047 80.1908L207.868 75.4612L207.888 75.4733L207.908 75.4855L205.047 80.1908ZM176.42 63.1125L173.598 67.8421L173.578 67.8301L173.558 67.8179L176.42 63.1125ZM603.543 473.537L598.072 474.167L609.014 472.908L603.543 473.537ZM603.758 475.583L609.237 475.028V475.028L603.758 475.583ZM165.945 56.7191L160.544 57.7979C159.801 54.0774 158.669 46.212 157.494 39.464C156.882 35.9469 156.238 32.5951 155.579 29.8476C154.867 26.8766 154.286 25.289 154.003 24.8057L158.755 22.0228L163.508 19.2399C164.722 21.3143 165.604 24.4191 166.29 27.279C167.03 30.3623 167.72 33.9799 168.346 37.574C169.647 45.0485 170.613 51.9735 171.345 55.6403L165.945 56.7191ZM158.755 22.0228L154.004 24.8079C153.402 23.7807 152.154 22.7643 149.908 21.2699L152.958 16.6844L156.008 12.0989C158.057 13.4617 161.447 15.7244 163.506 19.2377L158.755 22.0228ZM152.958 16.6844L149.909 21.2711C140.055 14.722 128.856 9.74514 118.539 11.3033L117.717 5.8577L116.894 0.412117C131.48 -1.79082 145.675 5.23127 156.006 12.0976L152.958 16.6844ZM117.717 5.8577L122.361 8.8166C120.328 12.0094 116.833 16.782 113.73 21.1396C110.444 25.7555 107.689 29.7853 106.564 32.0677L101.624 29.6325L96.6845 27.1974C98.2868 23.9471 101.645 19.1232 104.757 14.7517C108.053 10.1218 111.24 5.77332 113.072 2.89881L117.717 5.8577ZM101.624 29.6325L101.15 35.1195C93.1154 34.4253 81.5489 32.6269 73.8491 31.6485L74.5434 26.1851L75.2376 20.7217C83.507 21.7725 94.3309 23.4746 102.098 24.1456L101.624 29.6325ZM74.5434 26.1851L73.8489 31.6485C68.8285 31.0103 65.8302 30.7286 63.8562 30.7986C62.032 30.8633 62.0917 31.2041 62.3357 30.9637C62.341 30.9585 62.1919 31.102 61.914 31.6599C61.6265 32.2374 61.3072 33.0366 60.8749 34.2467C60.0504 36.5544 58.9184 40.0839 57.1191 44.4332L52.0301 42.3279L46.941 40.2226C48.6026 36.2062 49.5448 33.221 50.5023 30.5408C51.3418 28.1912 52.4328 25.2575 54.6061 23.1166C57.1427 20.6179 60.2978 19.9032 63.466 19.7908C66.4846 19.6838 70.3763 20.1037 75.2378 20.7217L74.5434 26.1851ZM52.0301 42.3279L57.1188 44.434C46.4944 70.1048 34.6593 96.0315 20.431 120.172L15.6864 117.375L10.9419 114.579C24.7959 91.0735 36.4052 65.6794 46.9414 40.2218L52.0301 42.3279ZM15.6864 117.375L20.439 120.158C20.8509 119.455 20.8995 118.932 20.7683 119.519C20.7022 119.816 20.6169 120.276 20.5172 120.904C20.3203 122.147 20.1111 123.77 19.9102 125.485C19.5028 128.962 19.1781 132.37 19.0443 133.596L13.5695 132.998L8.0947 132.4C8.19809 131.453 8.56296 127.68 8.97031 124.203C9.17667 122.442 9.40622 120.645 9.63828 119.18C9.7532 118.455 9.87997 117.739 10.0184 117.119C10.0919 116.79 10.3376 115.611 10.9339 114.592L15.6864 117.375ZM13.5695 132.998L19.0396 133.638C18.3185 139.803 17.5221 145.959 16.6506 152.105L11.1978 151.331L5.74503 150.558C6.60391 144.502 7.38882 138.435 8.09946 132.358L13.5695 132.998ZM11.1978 151.331L16.655 152.073C15.586 159.94 14.4197 167.795 13.1469 175.635L7.71066 174.753L2.27451 173.87C3.53146 166.127 4.68387 158.367 5.74063 150.59L11.1978 151.331ZM7.71066 174.753L13.1501 175.615C12.2546 181.264 11.3336 186.396 11.0161 191.594L5.51907 191.258L0.0219421 190.922C0.380829 185.048 1.42752 179.213 2.27127 173.891L7.71066 174.753ZM5.51907 191.258L11.0155 191.605C11.0146 191.62 11.0188 191.558 10.9934 191.453C10.9683 191.35 10.9333 191.282 10.9244 191.267C10.9209 191.261 10.9566 191.324 11.0824 191.463C11.2112 191.605 11.4022 191.791 11.6914 192.042L8.08829 196.207L4.4852 200.372C2.49661 198.652 -0.279205 195.696 0.0226746 190.911L5.51907 191.258ZM8.08829 196.207L11.6914 192.042C26.0583 204.47 32.5537 220.692 37.9877 237.291L32.7537 239.004L27.5197 240.717C22.167 224.367 16.4176 210.694 4.48526 200.372L8.08829 196.207ZM32.7537 239.004L27.2476 239.122C27.2423 238.873 27.1715 237.25 27.1657 236.197C27.1623 235.582 27.173 234.864 27.2295 234.174C27.2703 233.676 27.3764 232.482 27.8814 231.33L32.925 233.542L37.9686 235.754C38.1566 235.326 38.2091 235.018 38.2121 235.002C38.2227 234.945 38.2168 234.959 38.2075 235.073C38.1886 235.303 38.1776 235.659 38.1803 236.136C38.1828 236.598 38.1973 237.087 38.2145 237.566C38.2298 237.994 38.2521 238.525 38.2598 238.886L32.7537 239.004ZM32.925 233.542L29.1271 237.531C29.3061 237.694 29.7829 238.065 30.0872 238.262C30.5952 238.532 32.0224 238.975 32.9412 239.049C34.2082 238.897 36.4256 237.792 37.2739 236.919C37.7351 236.222 38.2427 234.97 38.3532 234.464C38.4981 233.611 38.398 232.93 38.382 232.811C38.3492 232.566 38.3065 232.376 38.2846 232.283C38.2389 232.089 38.1927 231.942 38.1765 231.891C38.1549 231.823 38.1364 231.77 38.1263 231.741C38.0937 231.648 38.0703 231.591 38.0839 231.625C38.0984 231.662 38.1351 231.752 38.2018 231.911C38.3303 232.217 38.5257 232.676 38.7725 233.25C39.2638 234.394 39.9358 235.946 40.629 237.542C42.0179 240.739 43.471 244.064 43.7019 244.586L38.6653 246.814L33.6287 249.042C33.3808 248.481 31.9134 245.123 30.5265 241.931C29.8318 240.331 29.1522 238.762 28.6514 237.596C28.4021 237.016 28.1915 236.522 28.0442 236.17C27.9729 236.001 27.9043 235.835 27.8512 235.702C27.8309 235.651 27.7831 235.53 27.7361 235.397C27.7324 235.386 27.6394 235.131 27.5639 234.811C27.5414 234.715 27.4983 234.523 27.4653 234.277C27.4491 234.157 27.3489 233.474 27.494 232.62C27.6045 232.114 28.1123 230.862 28.5736 230.164C29.422 229.291 31.6397 228.186 32.9069 228.034C33.8259 228.109 35.2533 228.551 35.7617 228.822C36.0664 229.019 36.5435 229.39 36.7228 229.554L32.925 233.542ZM38.6653 246.814L43.8891 248.558L43.4192 249.965L38.1953 248.221L32.9715 246.477L33.4415 245.069L38.6653 246.814ZM38.1953 248.221L43.563 249.454C43.1592 251.212 43.2148 254.027 43.3822 258.019C43.5287 261.513 43.7666 266.016 43.1233 269.677L37.6991 268.724L32.2748 267.771C32.6637 265.558 32.5436 262.449 32.3772 258.48C32.2316 255.008 32.0193 250.509 32.8277 246.988L38.1953 248.221ZM37.6991 268.724L43.1217 269.686C42.8598 271.163 42.6467 273.392 42.6129 275.675C42.5779 278.041 42.7452 279.965 43.0188 281.026L37.6859 282.402L32.3531 283.777C31.7088 281.279 31.5598 278.184 31.5995 275.511C31.6402 272.755 31.8927 269.925 32.2763 267.762L37.6991 268.724ZM37.6859 282.402L42.0699 279.068C43.4304 280.857 46.6876 283.295 51.0564 285.739C55.2402 288.08 59.6963 290.017 62.7055 291.029L60.9502 296.249L59.1949 301.47C55.4756 300.219 50.3967 297.991 45.6791 295.352C41.1465 292.817 36.1358 289.462 33.302 285.735L37.6859 282.402ZM60.9502 296.249L62.7046 291.029C75.2625 295.249 88.4911 298.122 102.054 300.933C115.515 303.722 129.36 306.46 142.646 310.394L141.082 315.675L139.518 320.956C126.777 317.182 113.464 314.545 99.8194 311.718C86.2778 308.912 72.4539 305.926 59.1958 301.47L60.9502 296.249ZM141.082 315.675L146.545 316.372C145.77 322.449 144.023 332.447 142.095 344.01C140.152 355.668 137.989 369.107 136.322 382.351C134.65 395.625 133.497 408.542 133.53 419.185C133.547 424.509 133.861 429.121 134.508 432.853C135.172 436.681 136.107 439.097 137.03 440.416L132.517 443.573L128.005 446.731C125.724 443.471 124.429 439.198 123.655 434.734C122.864 430.173 122.533 424.89 122.516 419.22C122.48 407.876 123.7 394.417 125.393 380.975C127.09 367.503 129.282 353.885 131.231 342.198C133.195 330.415 134.879 320.777 135.619 314.978L141.082 315.675ZM132.517 443.573L134.724 438.527C135.613 438.916 137.165 439.487 138.99 440.183C140.437 440.735 142.622 441.566 143.833 442.302L140.972 447.008L138.111 451.714C138.172 451.751 137.961 451.632 137.258 451.338C136.65 451.085 135.898 450.792 135.066 450.475C133.525 449.887 131.522 449.149 130.311 448.619L132.517 443.573ZM140.972 447.008L146.463 447.432C145.774 456.364 145.746 462.998 147.101 469.114C148.43 475.113 151.178 480.975 156.611 488.094L152.233 491.436L147.855 494.777C141.676 486.681 138.095 479.382 136.347 471.497C134.626 463.73 134.773 455.757 135.481 446.585L140.972 447.008ZM152.233 491.436L156.699 494.658C149.484 504.659 147.792 514.07 149.834 525.279L144.415 526.266L138.997 527.253C136.453 513.286 138.688 500.797 147.767 488.213L152.233 491.436ZM144.415 526.266L149.834 525.28C152.316 538.913 157.296 548.097 167.661 554.105L164.9 558.87L162.138 563.635C148.04 555.464 141.829 542.81 138.997 527.253L144.415 526.266ZM164.9 558.87L167.66 554.104C169.173 554.981 169.865 556.335 169.972 556.531C170.234 557.011 170.429 557.489 170.563 557.844C170.84 558.574 171.107 559.449 171.35 560.284C171.9 562.175 172.371 563.988 173.044 566.217C173.687 568.346 174.352 570.282 175.031 571.74C175.369 572.467 175.645 572.93 175.832 573.185C176.057 573.494 175.945 573.218 175.386 572.931L172.871 577.831L170.356 582.731C168.758 581.91 167.653 580.664 166.934 579.678C166.177 578.64 165.556 577.486 165.046 576.39C164.026 574.201 163.181 571.658 162.499 569.4C161.848 567.242 161.181 564.758 160.774 563.362C160.539 562.554 160.374 562.038 160.263 561.746C160.204 561.589 160.216 561.648 160.307 561.815C160.354 561.9 160.476 562.117 160.687 562.385C160.865 562.611 161.332 563.168 162.139 563.635L164.9 558.87ZM172.871 577.831L176.996 574.182C182.254 580.126 188.035 584.683 195.094 588.438L192.508 593.301L189.921 598.163C181.705 593.792 174.881 588.415 168.746 581.48L172.871 577.831ZM192.508 593.301L194.871 588.326C216.807 598.749 245.295 602.88 269.436 599.849L270.123 605.314L270.809 610.778C244.715 614.054 214.095 609.655 190.144 598.275L192.508 593.301ZM270.123 605.314L269.437 599.849C273.441 599.347 279.446 597.112 285.286 593.852C291.196 590.552 295.878 586.791 297.873 583.888L302.412 587.007L306.951 590.126C303.505 595.141 297.034 599.908 290.655 603.469C284.206 607.069 276.787 610.028 270.808 610.778L270.123 605.314ZM302.412 587.007L297.872 583.89C298.155 583.478 298.424 583.054 298.681 582.618L303.427 585.412L308.173 588.206C307.788 588.86 307.382 589.499 306.953 590.123L302.412 587.007ZM303.427 585.412L303.257 579.907C311.878 579.642 320.946 580.544 329.637 581.475C338.471 582.421 346.894 583.393 354.809 583.45L354.769 588.957L354.73 594.464C346.139 594.402 337.08 593.349 328.464 592.427C319.704 591.488 311.354 590.678 303.597 590.917L303.427 585.412ZM354.769 588.957L354.805 583.45C359.115 583.477 363.663 583.791 367.809 584.176L367.3 589.66L366.79 595.143C362.802 594.773 358.601 594.489 354.734 594.464L354.769 588.957ZM367.3 589.66L367.775 584.173L394.79 586.514L394.315 592.001L393.839 597.487L366.824 595.146L367.3 589.66ZM394.315 592.001L394.814 586.516C396.526 586.672 398.45 586.961 400.058 587.183C401.784 587.422 403.213 587.596 404.356 587.634L404.175 593.138L403.993 598.643C402.202 598.584 400.245 598.329 398.547 598.094C396.729 597.842 395.191 597.611 393.815 597.485L394.315 592.001ZM404.175 593.138L409.315 595.116C405.315 605.511 399.598 615.751 395.314 625.036L390.314 622.729L385.313 620.422C390.164 609.906 395.155 601.242 399.035 591.16L404.175 593.138ZM390.314 622.729L395.314 625.036C388.137 640.59 380.271 654.69 373.96 669.833L368.876 667.714L363.793 665.595C370.095 650.476 378.717 634.717 385.313 620.421L390.314 622.729ZM368.876 667.714V662.207H587.821V667.714V673.221H368.876V667.714ZM587.821 667.714L582.363 666.978C586.215 638.427 584.659 614.515 574.44 587.67L579.587 585.711L584.734 583.752C595.727 612.627 597.327 638.444 593.279 668.451L587.821 667.714ZM579.587 585.711L574.44 587.67C573.357 584.823 571.865 581.985 570.22 578.89C568.646 575.926 566.872 572.623 565.639 569.339L570.796 567.404L575.952 565.469C576.884 567.952 578.28 570.583 579.947 573.721C581.545 576.727 583.367 580.16 584.734 583.752L579.587 585.711ZM570.796 567.404L565.628 569.308L565.443 568.807L570.611 566.903L575.779 564.999L575.964 565.5L570.796 567.404ZM570.611 566.903L570.746 561.398C579.135 561.603 587.527 561.672 595.918 561.607L595.961 567.114L596.004 572.621C587.495 572.688 578.984 572.617 570.477 572.409L570.611 566.903ZM595.961 567.114L595.869 561.608C597.913 561.573 600.921 561.32 604.978 561.175C606.807 561.11 608.715 561.078 610.403 561.146C611.859 561.205 613.926 561.352 615.6 562.006L613.597 567.136L611.594 572.266C611.829 572.358 611.463 572.213 609.957 572.152C608.683 572.1 607.099 572.121 605.371 572.183C602.314 572.292 597.943 572.589 596.054 572.621L595.961 567.114ZM613.597 567.136L615.6 562.006C620.945 564.093 625.944 567.225 630.313 569.793C634.884 572.48 638.972 574.687 643.286 575.833L641.872 581.156L640.457 586.479C634.555 584.911 629.331 581.992 624.732 579.289C619.932 576.468 615.902 573.948 611.594 572.266L613.597 567.136ZM641.872 581.156L636.41 580.45C636.864 576.936 637.12 573.416 637.387 569.719C637.649 566.071 637.923 562.244 638.42 558.374L643.883 559.076L649.345 559.778C648.894 563.292 648.639 566.811 648.373 570.51C648.11 574.161 647.834 577.989 647.333 581.862L641.872 581.156ZM643.883 559.076L645.137 553.714C646.933 554.134 649.044 554.482 651.366 554.835C653.606 555.175 656.099 555.527 658.337 555.932L657.356 561.352L656.375 566.771C654.341 566.403 652.126 566.091 649.711 565.725C647.378 565.37 644.888 564.967 642.628 564.439L643.883 559.076ZM657.356 561.352L658.354 555.935L690.106 561.786L689.108 567.202L688.11 572.618L656.358 566.768L657.356 561.352ZM689.108 567.202L690.076 561.78L717.47 566.669L716.503 572.091L715.535 577.512L688.141 572.624L689.108 567.202ZM716.503 572.091L717.433 566.662C724.163 567.816 729.287 569.14 734.837 569.026L734.949 574.533L735.062 580.039C728.119 580.18 721.193 578.482 715.572 577.519L716.503 572.091ZM734.949 574.533L729.833 576.57C728.875 574.163 727.964 571.43 727.107 568.837C726.228 566.176 725.402 563.651 724.554 561.403L729.706 559.458L734.859 557.514C735.808 560.027 736.716 562.81 737.566 565.382C738.437 568.02 739.249 570.444 740.066 572.495L734.949 574.533ZM729.706 559.458L724.569 561.443C719.702 548.842 715.173 536.118 710.986 523.273L716.223 521.567L721.459 519.86C725.584 532.517 730.047 545.056 734.844 557.474L729.706 559.458ZM716.223 521.567L710.985 523.27C708.954 517.024 706.127 509.113 705.119 501.763L710.575 501.015L716.031 500.267C716.869 506.375 719.245 513.055 721.46 519.863L716.223 521.567ZM710.575 501.015L708.718 495.83C715.698 493.33 730.107 485.897 738.049 482.154L740.397 487.136L742.745 492.117C735.684 495.446 720.069 503.465 712.432 506.2L710.575 501.015ZM740.397 487.136L738.048 482.155C750.196 476.424 763.066 470.999 774.255 464.962L776.87 469.808L779.485 474.655C767.964 480.872 754.288 486.673 742.747 492.117L740.397 487.136ZM776.87 469.808L773.009 473.736C771.355 472.109 769.585 470.222 768.099 468.615L772.142 464.876L776.185 461.136C777.656 462.727 779.276 464.45 780.731 465.881L776.87 469.808ZM772.142 464.876L768.096 468.612C764.202 464.394 759.838 460.296 755.3 455.937C750.832 451.647 746.23 447.135 742.215 442.347L746.434 438.808L750.654 435.269C754.249 439.555 758.465 443.705 762.93 447.993C767.324 452.214 772.009 456.612 776.189 461.14L772.142 464.876ZM746.434 438.808L743.072 434.446C753.401 426.483 764.024 418.802 774.589 411.188C785.177 403.557 795.7 396 805.945 388.21L809.278 392.594L812.612 396.978C802.231 404.871 791.582 412.518 781.029 420.124C770.453 427.745 759.967 435.329 749.797 443.17L746.434 438.808ZM809.278 392.594L805.945 388.21C814.844 381.444 824.168 374.436 833.315 367.927L836.508 372.415L839.701 376.902C830.7 383.306 821.489 390.228 812.612 396.978L809.278 392.594ZM836.508 372.415L833.973 377.304C815.316 367.629 796.526 358.213 777.61 349.058L780.009 344.1L782.408 339.143C801.416 348.343 820.296 357.804 839.043 367.525L836.508 372.415ZM780.009 344.1L777.625 349.065C768.939 344.894 758.177 340.533 749.102 335.818L751.642 330.931L754.181 326.044C763.354 330.81 772.47 334.371 782.393 339.136L780.009 344.1ZM751.642 330.931L746.333 329.465C749.761 317.052 755.211 304.199 759.258 292.654L764.455 294.476L769.652 296.298C765.245 308.869 760.264 320.397 756.95 332.397L751.642 330.931ZM764.455 294.476L759.26 292.648C768.107 267.501 776.065 242.05 783.117 216.343L788.428 217.8L793.739 219.256C786.618 245.214 778.584 270.912 769.65 296.304L764.455 294.476ZM788.428 217.8L783.12 216.33C786.72 203.332 790.641 190.464 792.31 177.784L797.771 178.503L803.231 179.222C801.434 192.872 797.212 206.716 793.736 219.269L788.428 217.8ZM797.771 178.503L799.645 183.681C793.039 186.073 783.006 191.159 775.978 194.605L773.553 189.66L771.129 184.715C777.754 181.467 788.56 175.98 795.896 173.324L797.771 178.503ZM773.553 189.66L776.016 194.586C758.892 203.147 741.923 212.014 725.117 221.184L722.479 216.35L719.842 211.515C736.763 202.282 753.849 193.354 771.09 184.734L773.553 189.66ZM722.479 216.35L725.117 221.184C716.553 225.857 708.043 230.628 699.588 235.497L696.839 230.724L694.091 225.951C702.619 221.041 711.203 216.228 719.841 211.515L722.479 216.35ZM696.839 230.724L699.617 235.48C698.853 235.926 697.53 236.742 695.79 237.802C694.098 238.834 692.094 240.047 690.109 241.197C688.142 242.337 686.103 243.469 684.356 244.315C683.49 244.735 682.587 245.138 681.738 245.437C681.166 245.639 679.665 246.165 678.024 245.996L678.591 240.518L679.158 235.039C678.095 234.929 677.495 235.255 678.07 235.051C678.368 234.946 678.857 234.74 679.554 234.403C680.93 233.736 682.691 232.766 684.585 231.667C686.461 230.58 688.38 229.42 690.056 228.398C691.686 227.404 693.178 226.485 694.062 225.969L696.839 230.724ZM678.591 240.518L673.258 241.891C672.601 239.343 672.169 235.877 671.825 232.779C671.457 229.464 671.179 226.467 670.847 224.2L676.296 223.402L681.745 222.604C682.114 225.121 682.44 228.571 682.772 231.563C683.128 234.772 683.493 237.471 683.924 239.144L678.591 240.518ZM676.296 223.402L670.847 224.2C665.805 189.788 658.611 155.663 649.468 122.095L654.782 120.648L660.096 119.201C669.35 153.181 676.637 187.738 681.745 222.604L676.296 223.402ZM654.782 120.648L649.468 122.095C645.39 107.121 641.864 92.5253 637.162 78.1803L642.395 76.4649L647.628 74.7495C652.447 89.4487 656.128 104.631 660.096 119.201L654.782 120.648ZM642.395 76.4649L644.619 81.5031C642.831 82.2925 640.503 84.0011 637.852 86.3415C635.247 88.6408 632.842 91.0753 630.639 93.1961L626.82 89.2283L623.001 85.2605C624.945 83.3884 627.721 80.5923 630.563 78.0838C633.358 75.6164 636.743 72.9397 640.171 71.4267L642.395 76.4649ZM626.82 89.2283L630.639 93.1963C601.443 121.298 579.17 154.279 554.308 187.126L549.917 183.802L545.526 180.479C569.909 148.263 592.986 114.15 623.001 85.2604L626.82 89.2283ZM549.917 183.802L544.918 186.112C543.315 182.643 541.122 175.188 540.174 172.205L545.423 170.537L550.672 168.869C551.853 172.585 553.698 178.855 554.917 181.492L549.917 183.802ZM545.423 170.537L540.17 172.191C537.842 164.8 535.457 157.425 533.018 150.069L538.246 148.336L543.473 146.603C545.93 154.011 548.331 161.438 550.676 168.882L545.423 170.537ZM538.246 148.336L533.013 150.053C531.837 146.468 530.74 142.962 529.502 139.693L534.652 137.743L539.803 135.793C541.156 139.365 542.371 143.242 543.479 146.619L538.246 148.336ZM534.652 137.743L529.502 139.693C522.755 121.877 517.234 104.559 510.134 87.4299L515.221 85.321L520.309 83.2121C527.436 100.405 533.382 118.837 539.803 135.793L534.652 137.743ZM515.221 85.321L518.369 89.84C517.064 90.7489 514.96 93.1457 512.454 96.533C510.028 99.8104 507.921 103.023 506.165 105.513L501.664 102.339L497.164 99.1644C498.598 97.1311 501.119 93.3326 503.6 89.9807C505.999 86.7386 509.079 82.8881 512.074 80.8019L515.221 85.321ZM501.664 102.339L506.191 105.476C486.827 133.417 470.086 163.087 456.183 194.11L451.157 191.858L446.132 189.605C460.312 157.964 477.387 127.7 497.138 99.2017L501.664 102.339ZM451.157 191.858L456.172 194.134C453.49 200.043 450.924 206.339 448.325 212.696C445.743 219.009 443.127 225.388 440.407 231.271L435.408 228.96L430.409 226.649C433.008 221.027 435.533 214.877 438.13 208.527C440.708 202.221 443.357 195.719 446.142 189.582L451.157 191.858ZM435.408 228.96L433.951 234.271C427.982 232.633 420.667 229.37 413.78 226.174C406.667 222.874 399.952 219.616 394.558 217.545L396.533 212.403L398.507 207.262C404.361 209.51 411.63 213.034 418.416 216.183C425.428 219.437 431.927 222.293 436.866 223.649L435.408 228.96ZM396.533 212.403L401.971 213.271C401.218 217.99 401.117 223.039 401.187 228.403C401.256 233.601 401.498 239.351 401.321 244.705L395.817 244.523L390.312 244.341C390.478 239.32 390.248 234.214 390.174 228.547C390.101 223.046 390.187 217.223 391.094 211.536L396.533 212.403ZM395.817 244.523L401.321 244.703C400.852 259.021 401.705 273.59 402.634 288.416C403.557 303.155 404.558 318.173 404.297 332.977L398.79 332.88L393.284 332.782C393.536 318.509 392.572 303.967 391.64 289.105C390.715 274.331 389.824 259.26 390.312 244.343L395.817 244.523ZM398.79 332.88L401.735 337.534C394.58 342.06 389.498 344.786 384.05 346.915C378.705 349.003 373.126 350.462 365.259 352.562L363.839 347.241L362.418 341.92C370.498 339.763 375.397 338.47 380.042 336.655C384.583 334.881 389.003 332.555 395.845 328.225L398.79 332.88ZM363.839 347.241L367.243 351.57L365.736 352.755L362.332 348.426L358.928 344.097L360.434 342.912L363.839 347.241ZM362.332 348.426L362.218 353.932L357.593 353.836L357.707 348.33L357.822 342.824L362.447 342.92L362.332 348.426ZM357.707 348.33L352.271 349.212L352.183 348.671L357.62 347.789L363.056 346.906L363.144 347.447L357.707 348.33ZM357.62 347.789L352.284 346.424C354.607 337.345 357.154 329.712 361.07 322.682C365.014 315.601 370.206 309.378 377.549 302.89L381.196 307.017L384.842 311.144C378.236 316.981 373.913 322.26 370.693 328.042C367.444 333.874 365.178 340.464 362.955 349.154L357.62 347.789ZM381.196 307.017L375.857 305.663C376.54 302.971 376.86 300.671 377.158 298.216C377.453 295.795 377.742 293.059 378.388 289.974L383.778 291.102L389.169 292.231C388.642 294.746 388.411 296.929 388.092 299.546C387.778 302.129 387.393 304.986 386.534 308.371L381.196 307.017ZM383.778 291.102L378.388 289.973C381.467 275.276 384.92 261.212 387.581 246.775L392.997 247.774L398.413 248.772C395.733 263.316 392.133 278.085 389.169 292.232L383.778 291.102ZM392.997 247.774L387.58 246.778C387.572 246.825 387.61 246.607 387.556 245.957C387.506 245.346 387.401 244.622 387.256 243.718C387.016 242.233 386.527 239.639 386.616 237.515L392.119 237.746L397.621 237.977C397.592 238.679 397.781 239.797 398.13 241.968C398.384 243.547 398.858 246.352 398.414 248.769L392.997 247.774ZM392.119 237.746L386.612 237.814C386.557 233.384 386.857 229.101 387.106 225.215C387.361 221.242 387.563 217.693 387.411 214.302C387.118 207.775 385.534 202.107 380.305 196.583L384.305 192.797L388.305 189.011C395.818 196.949 398.037 205.403 398.414 213.808C398.597 217.883 398.35 222.003 398.098 225.921C397.841 229.925 397.577 233.755 397.626 237.678L392.119 237.746ZM384.305 192.797L378.846 192.073C379.335 188.384 379.869 185.18 380.171 181.927C380.467 178.737 380.467 176.102 380.033 173.951C379.619 171.901 378.846 170.445 377.628 169.33C376.362 168.171 374.159 166.966 370.175 166.279L371.112 160.851L372.048 155.424C377.446 156.355 381.812 158.227 385.065 161.205C388.365 164.225 390.061 167.965 390.83 171.771C391.578 175.476 391.472 179.358 391.139 182.946C390.811 186.472 390.191 190.307 389.765 193.521L384.305 192.797ZM371.112 160.851L370.175 166.279C368.523 165.993 366.573 165.376 364.874 164.821C363.017 164.215 361.213 163.598 359.37 163.06C357.528 162.523 355.932 162.153 354.638 162.013C353.232 161.862 352.846 162.061 352.987 161.996L350.663 157.003L348.338 152.01C350.899 150.818 353.682 150.832 355.818 151.062C358.067 151.304 360.385 151.883 362.454 152.486C364.521 153.089 366.624 153.805 368.292 154.35C370.119 154.946 371.313 155.297 372.048 155.424L371.112 160.851ZM350.663 157.003L352.985 161.996C353.074 161.955 352.889 162.04 352.442 162.38C352.046 162.681 351.593 163.071 351.159 163.494C350.718 163.924 350.373 164.316 350.151 164.611C350.1 164.68 350.061 164.736 350.034 164.777C350.006 164.819 349.995 164.839 349.995 164.839C349.995 164.838 350 164.83 350.008 164.814C350.016 164.798 350.028 164.774 350.042 164.74C350.07 164.675 350.118 164.556 350.164 164.388L344.857 162.918L339.549 161.449C339.953 159.99 340.757 158.78 341.335 158.008C341.984 157.142 342.737 156.322 343.468 155.609C344.803 154.307 346.649 152.796 348.34 152.009L350.663 157.003ZM344.857 162.918L349.845 165.253L349.511 165.966L344.523 163.632L339.535 161.297L339.868 160.584L344.857 162.918ZM344.523 163.632L341.919 168.484C339.809 167.353 334.567 164.148 330.025 161.475C327.664 160.085 325.427 158.798 323.671 157.861C322.786 157.388 322.098 157.044 321.615 156.828C321.371 156.719 321.25 156.674 321.226 156.666C321.103 156.624 321.478 156.776 322.097 156.815L322.449 151.319L322.8 145.823C323.694 145.88 324.45 146.127 324.804 146.249C325.255 146.404 325.705 146.591 326.114 146.774C326.937 147.143 327.883 147.623 328.859 148.144C330.827 149.195 333.226 150.578 335.612 151.982C340.565 154.897 345.261 157.778 347.127 158.779L344.523 163.632ZM322.449 151.319L327.088 154.287C327.027 154.382 326.991 154.439 326.964 154.482C326.937 154.526 326.939 154.524 326.954 154.497C326.995 154.426 327.12 154.199 327.234 153.873C327.287 153.72 327.323 153.588 327.347 153.488C327.358 153.44 327.366 153.402 327.371 153.377C327.376 153.352 327.379 153.337 327.379 153.335C327.379 153.334 327.378 153.341 327.375 153.36C327.372 153.379 327.368 153.405 327.362 153.442C327.353 153.502 327.334 153.63 327.316 153.744L321.873 152.905L316.43 152.065C316.449 151.946 316.493 151.645 316.528 151.444C316.573 151.183 316.657 150.751 316.831 150.25C317.012 149.732 317.226 149.32 317.398 149.02C317.543 148.766 317.709 148.509 317.809 148.352L322.449 151.319ZM321.873 152.905L317.569 156.34C314.92 153.022 313.848 152.079 312.819 151.395C312.21 150.99 311.51 150.608 310.288 149.965C309.105 149.342 307.574 148.544 305.591 147.406L308.333 142.63L311.074 137.853C312.858 138.877 314.216 139.585 315.42 140.219C316.585 140.832 317.771 141.46 318.918 142.223C321.405 143.876 323.336 145.909 326.178 149.469L321.873 152.905ZM308.333 142.63L305.569 147.394C298.554 143.324 291.569 139.203 284.616 135.031L287.449 130.309L290.282 125.586C297.19 129.73 304.128 133.824 311.096 137.866L308.333 142.63ZM287.449 130.309L284.587 135.014L202.185 84.8962L205.047 80.1908L207.908 75.4855L290.311 125.603L287.449 130.309ZM205.047 80.1908L202.225 84.9205L173.598 67.8421L176.42 63.1125L179.241 58.3828L207.868 75.4612L205.047 80.1908ZM176.42 63.1125L173.558 67.8179C172.443 67.14 170.377 65.9471 168.132 64.6129C166.14 63.4293 163.712 61.9649 162.55 61.0558L165.945 56.7191L169.34 52.3824C169.808 52.7488 171.486 53.7933 173.758 55.1436C175.777 56.3433 178.134 57.7093 179.282 58.407L176.42 63.1125ZM603.543 473.537L609.014 472.908C609.224 474.732 609.365 476.519 609.665 478.974C609.963 481.41 610.266 483.007 610.464 483.54L605.303 485.462L600.142 487.385C599.411 485.422 598.999 482.496 598.732 480.312C598.467 478.147 598.193 475.22 598.072 474.167L603.543 473.537ZM605.303 485.462L600.142 487.385C599.53 485.741 599.164 483.515 598.918 481.739C598.649 479.807 598.44 477.737 598.278 476.138L603.758 475.583L609.237 475.028C609.403 476.663 609.592 478.528 609.828 480.225C610.085 482.078 610.328 483.175 610.464 483.54L605.303 485.462ZM603.758 475.583L598.278 476.138C598.198 475.341 598.131 474.683 598.072 474.167L603.543 473.537L609.014 472.908C609.084 473.514 609.159 474.258 609.237 475.028L603.758 475.583Z" fill="#01FD90" mask="url(#path-1-outside-1_540_327)"/>
<defs>
<filter id="filter0_i_540_327" x="0" y="0" width="847.046" height="677.628" filterUnits="userSpaceOnUse" color-interpolation-filters="sRGB">
<feFlood flood-opacity="0" result="BackgroundImageFix"/>
<feBlend mode="normal" in="SourceGraphic" in2="BackgroundImageFix" result="shape"/>
<feColorMatrix in="SourceAlpha" type="matrix" values="0 0 0 0 0 0 0 0 0 0 0 0 0 0 0 0 0 0 127 0" result="hardAlpha"/>
<feOffset dy="4.40588"/>
<feGaussianBlur stdDeviation="53.1459"/>
<feComposite in2="hardAlpha" operator="arithmetic" k2="-1" k3="1"/>
<feColorMatrix type="matrix" values="0 0 0 0 0.00392157 0 0 0 0 0.992157 0 0 0 0 0.564706 0 0 0 1 0"/>
<feBlend mode="normal" in2="shape" result="effect1_innerShadow_540_327"/>
</filter>
</defs>
</svg>
