<svg width="652" height="191" viewBox="0 0 652 191" fill="none" xmlns="http://www.w3.org/2000/svg">
<g filter="url(#filter0_i_492_392)">
<mask id="path-1-inside-1_492_392" fill="white">
<path d="M304.985 0C353.982 5.57689e-06 397.422 8.95441 424.389 22.752C455.682 38.5106 472.462 39.7604 509.035 35.585C519.561 34.3098 530.786 33.6191 542.438 33.6191C602.595 33.6192 651.361 51.9752 651.361 74.6182C651.361 87.8484 634.711 99.611 608.868 107.107L608.871 107.109C589.137 112.826 582.297 114.133 571.919 126.188C569.264 132.63 564.561 138.746 558.165 144.438C547.841 153.625 532.985 161.832 514.754 168.694C478.281 182.423 427.992 190.884 372.518 190.884C322.273 190.884 276.282 183.943 240.957 172.434C216.063 167.561 207.348 168.289 184.616 169.362C179.81 169.606 174.904 169.735 169.92 169.735C115.217 169.735 69.934 154.557 62.1729 134.778C57.0287 122.847 54.1827 121.675 32.9746 115.033L32.9795 115.031C12.8274 108.714 0.000134863 99.2007 0 88.5576C0 69.5375 40.9645 54.1182 91.4961 54.1182C94.7187 54.1182 97.9024 54.1813 101.039 54.3037C132.095 55.4092 147.625 53.198 166.426 35.9922C187.62 14.954 241.663 0 304.985 0Z"/>
</mask>
<path d="M304.985 0C353.982 5.57689e-06 397.422 8.95441 424.389 22.752C455.682 38.5106 472.462 39.7604 509.035 35.585C519.561 34.3098 530.786 33.6191 542.438 33.6191C602.595 33.6192 651.361 51.9752 651.361 74.6182C651.361 87.8484 634.711 99.611 608.868 107.107L608.871 107.109C589.137 112.826 582.297 114.133 571.919 126.188C569.264 132.63 564.561 138.746 558.165 144.438C547.841 153.625 532.985 161.832 514.754 168.694C478.281 182.423 427.992 190.884 372.518 190.884C322.273 190.884 276.282 183.943 240.957 172.434C216.063 167.561 207.348 168.289 184.616 169.362C179.81 169.606 174.904 169.735 169.92 169.735C115.217 169.735 69.934 154.557 62.1729 134.778C57.0287 122.847 54.1827 121.675 32.9746 115.033L32.9795 115.031C12.8274 108.714 0.000134863 99.2007 0 88.5576C0 69.5375 40.9645 54.1182 91.4961 54.1182C94.7187 54.1182 97.9024 54.1813 101.039 54.3037C132.095 55.4092 147.625 53.198 166.426 35.9922C187.62 14.954 241.663 0 304.985 0Z" fill="black"/>
<path d="M304.985 0V-1V-1V0ZM424.389 22.752L423.933 23.6422L423.939 23.6451L424.389 22.752ZM509.035 35.585L509.149 36.5785L509.155 36.5777L509.035 35.585ZM542.438 33.6191V32.6191V32.6191V33.6191ZM651.361 74.6182L652.361 74.6182V74.6182H651.361ZM608.868 107.107L608.59 106.147L606.524 106.746L608.313 107.939L608.868 107.107ZM608.871 107.109L609.149 108.07L611.216 107.471L609.426 106.277L608.871 107.109ZM571.919 126.188L571.161 125.535L571.056 125.657L570.994 125.806L571.919 126.188ZM558.165 144.438L558.83 145.185V145.185L558.165 144.438ZM514.754 168.694L515.106 169.63V169.63L514.754 168.694ZM372.518 190.884V191.884V191.884V190.884ZM240.957 172.434L241.267 171.483L241.209 171.464L241.149 171.452L240.957 172.434ZM184.616 169.362L184.569 168.363L184.566 168.364L184.616 169.362ZM169.92 169.735V170.735V170.735V169.735ZM62.1729 134.778L63.1037 134.413L63.0977 134.398L63.0911 134.382L62.1729 134.778ZM32.9746 115.033L32.6032 114.105L29.995 115.148L32.6758 115.988L32.9746 115.033ZM32.9795 115.031L33.3509 115.96L35.9579 114.917L33.2786 114.077L32.9795 115.031ZM0 88.5576H-1V88.5576L0 88.5576ZM91.4961 54.1182V53.1182V53.1182V54.1182ZM101.039 54.3037L101 55.303L101.003 55.3031L101.039 54.3037ZM166.426 35.9922L167.101 36.7299L167.116 36.7162L167.13 36.7019L166.426 35.9922ZM304.985 0V1C353.89 1.00001 397.157 9.94185 423.933 23.6422L424.389 22.752L424.844 21.8617C397.688 7.96698 354.074 -0.999994 304.985 -1V0ZM424.389 22.752L423.939 23.6451C439.642 31.553 451.769 35.8535 464.594 37.6342C477.404 39.4128 490.846 38.668 509.149 36.5785L509.035 35.585L508.922 34.5914C490.651 36.6773 477.417 37.3954 464.869 35.6532C452.338 33.9133 440.428 29.7096 424.838 21.8588L424.389 22.752ZM509.035 35.585L509.155 36.5777C519.64 35.3075 530.825 34.6191 542.438 34.6191V33.6191V32.6191C530.747 32.6191 519.482 33.3121 508.915 34.5922L509.035 35.585ZM542.438 33.6191V34.6191C572.428 34.6192 599.534 39.1964 619.106 46.5634C628.896 50.2483 636.749 54.6119 642.137 59.4066C647.526 64.2021 650.361 69.3446 650.361 74.6182H651.361H652.361C652.361 68.5702 649.101 62.9271 643.466 57.9125C637.831 52.8971 629.732 48.4261 619.811 44.6917C599.961 37.22 572.605 32.6192 542.438 32.6191V33.6191ZM651.361 74.6182L650.361 74.6181C650.361 80.78 646.483 86.7677 639.207 92.2123C631.945 97.6458 621.446 102.418 608.59 106.147L608.868 107.107L609.147 108.068C622.133 104.301 632.881 99.4432 640.405 93.8137C647.914 88.1953 652.361 81.6867 652.361 74.6182L651.361 74.6182ZM608.868 107.107L608.313 107.939L608.316 107.941L608.871 107.109L609.426 106.277L609.423 106.275L608.868 107.107ZM608.871 107.109L608.593 106.149C598.777 108.992 592.029 110.775 586.465 113.365C580.836 115.985 576.422 119.424 571.161 125.535L571.919 126.188L572.677 126.84C577.793 120.897 581.989 117.655 587.309 115.178C592.693 112.672 599.232 110.943 609.149 108.07L608.871 107.109ZM571.919 126.188L570.994 125.806C568.412 132.072 563.816 138.07 557.5 143.69L558.165 144.438L558.83 145.185C565.305 139.422 570.116 133.187 572.844 126.569L571.919 126.188ZM558.165 144.438L557.5 143.69C547.3 152.768 532.567 160.921 514.402 167.758L514.754 168.694L515.106 169.63C533.403 162.743 548.382 154.482 558.83 145.185L558.165 144.438ZM514.754 168.694L514.402 167.758C478.067 181.435 427.903 189.884 372.518 189.884V190.884V191.884C428.08 191.884 478.494 183.411 515.106 169.63L514.754 168.694ZM372.518 190.884V189.884C322.356 189.884 276.473 182.953 241.267 171.483L240.957 172.434L240.647 173.384C276.091 184.932 322.189 191.884 372.518 191.884V190.884ZM240.957 172.434L241.149 171.452C216.135 166.557 207.323 167.289 184.569 168.363L184.616 169.362L184.663 170.361C207.372 169.289 215.991 168.566 240.765 173.415L240.957 172.434ZM184.616 169.362L184.566 168.364C179.776 168.607 174.887 168.735 169.92 168.735V169.735V170.735C174.921 170.735 179.844 170.606 184.667 170.361L184.616 169.362ZM169.92 169.735V168.735C142.652 168.735 117.764 164.951 98.7546 158.723C89.2491 155.609 81.2435 151.894 75.1518 147.757C69.0494 143.613 64.9423 139.098 63.1037 134.413L62.1729 134.778L61.242 135.144C63.284 140.348 67.7477 145.147 74.0282 149.412C80.3193 153.684 88.5087 157.471 98.1319 160.624C117.38 166.93 142.485 170.735 169.92 170.735V169.735ZM62.1729 134.778L63.0911 134.382C60.4981 128.368 58.4035 124.865 54.1443 122.085C49.9948 119.376 43.8184 117.381 33.2735 114.079L32.9746 115.033L32.6758 115.988C43.3389 119.327 49.1895 121.239 53.0511 123.76C56.8029 126.209 58.7034 129.257 61.2546 135.174L62.1729 134.778ZM32.9746 115.033L33.346 115.962L33.3509 115.96L32.9795 115.031L32.6081 114.103L32.6032 114.105L32.9746 115.033ZM32.9795 115.031L33.2786 114.077C23.2677 110.939 15.147 107.027 9.55053 102.63C3.94411 98.2257 1.00006 93.445 1 88.5576L0 88.5576L-1 88.5576C-0.999927 94.3133 2.46971 99.6108 8.31498 104.203C14.1702 108.803 22.5392 112.806 32.6804 115.985L32.9795 115.031ZM0 88.5576H1C1 84.1898 3.34818 79.9101 7.85504 75.8994C12.361 71.8895 18.938 68.2326 27.151 65.1412C43.5696 58.9612 66.3188 55.1182 91.4961 55.1182V54.1182V53.1182C66.1417 53.1182 43.1429 56.9848 26.4464 63.2694C18.1018 66.4104 11.2795 70.1746 6.52546 74.4053C1.77238 78.6351 -1 83.4154 -1 88.5576H0ZM91.4961 54.1182V55.1182C94.7057 55.1182 97.8764 55.1811 101 55.303L101.039 54.3037L101.078 53.3045C97.9285 53.1816 94.7318 53.1182 91.4961 53.1182V54.1182ZM101.039 54.3037L101.003 55.3031C116.54 55.8561 128.31 55.5872 138.574 52.984C148.878 50.3708 157.603 45.4223 167.101 36.7299L166.426 35.9922L165.751 35.2545C156.448 43.7679 148.008 48.5279 138.082 51.0454C128.117 53.5729 116.594 53.8568 101.075 53.3043L101.039 54.3037ZM166.426 35.9922L167.13 36.7019C177.543 26.3659 196.151 17.4251 220.163 11.0735C244.144 4.73026 273.398 1 304.985 1V0V-1C273.25 -1 243.822 2.74672 219.652 9.14001C195.513 15.525 176.503 24.5803 165.721 35.2825L166.426 35.9922Z" fill="#FD01BA" mask="url(#path-1-inside-1_492_392)"/>
<path d="M309.354 44.5221C314.547 46.8619 316.737 53.4361 314.113 59.2592C311.489 65.0824 305.114 67.7977 299.921 65.4582C294.728 63.1185 292.539 56.5443 295.163 50.7211C297.786 44.8979 304.161 42.1824 309.354 44.5221Z" fill="white" stroke="#FD01BA"/>
<circle cx="338.458" cy="59.4756" r="10.3923" transform="rotate(24.2538 338.458 59.4756)" fill="white" stroke="#FD01BA"/>
<circle cx="338.457" cy="59.476" r="3.85693" transform="rotate(24.2538 338.457 59.476)" fill="black" stroke="#FD01BA"/>
<path d="M306.67 50.4812C308.522 51.316 309.321 53.9845 308.154 56.575C306.987 59.1655 304.458 60.3348 302.606 59.5006C300.754 58.666 299.954 55.997 301.121 53.4063C302.288 50.8155 304.817 49.6465 306.67 50.4812Z" fill="black" stroke="#FD01BA"/>
</g>
<defs>
<filter id="filter0_i_492_392" x="0" y="0" width="659.361" height="195.884" filterUnits="userSpaceOnUse" color-interpolation-filters="sRGB">
<feFlood flood-opacity="0" result="BackgroundImageFix"/>
<feBlend mode="normal" in="SourceGraphic" in2="BackgroundImageFix" result="shape"/>
<feColorMatrix in="SourceAlpha" type="matrix" values="0 0 0 0 0 0 0 0 0 0 0 0 0 0 0 0 0 0 127 0" result="hardAlpha"/>
<feOffset dx="8" dy="5"/>
<feGaussianBlur stdDeviation="48.75"/>
<feComposite in2="hardAlpha" operator="arithmetic" k2="-1" k3="1"/>
<feColorMatrix type="matrix" values="0 0 0 0 0.992157 0 0 0 0 0.0862745 0 0 0 0 0.00392157 0 0 0 1 0"/>
<feBlend mode="normal" in2="shape" result="effect1_innerShadow_492_392"/>
</filter>
</defs>
</svg>
